<svg preserveAspectRatio="none" width="100%" height="100%" overflow="visible" style="display: block;" viewBox="0 0 24 24" fill="none" xmlns="http://www.w3.org/2000/svg">
<g id="icon">
<path id="path" fill-rule="evenodd" clip-rule="evenodd" d="M4.33085 5.5H2.5V3.5H4.33085C5.78071 3.5 7.0231 4.53687 7.28246 5.96334L7.38003 6.5H21.5L20.5 13.5484L10.3494 15.9115C8.65724 16.3603 6.94193 15.2708 6.62877 13.5484L5.31472 6.32111C5.22826 5.84562 4.81413 5.5 4.33085 5.5ZM9.5 19C9.5 19.8284 8.82843 20.5 8 20.5C7.17157 20.5 6.5 19.8284 6.5 19C6.5 18.1716 7.17157 17.5 8 17.5C8.82843 17.5 9.5 18.1716 9.5 19ZM17 20.5C17.8284 20.5 18.5 19.8284 18.5 19C18.5 18.1716 17.8284 17.5 17 17.5C16.1716 17.5 15.5 18.1716 15.5 19C15.5 19.8284 16.1716 20.5 17 20.5Z" fill="var(--fill-0, white)"/>
</g>
</svg>
