<svg preserveAspectRatio="none" width="100%" height="100%" overflow="visible" style="display: block;" viewBox="0 0 20 20" fill="none" xmlns="http://www.w3.org/2000/svg">
<path id="path" fill-rule="evenodd" clip-rule="evenodd" d="M2.54541 7.09081C2.19327 7.99246 2 8.97366 2 10C2 14.0796 5.05369 17.446 9 17.9381V12H7L6 10H4L2.54541 7.09081ZM16.2932 14.9398C17.3623 13.5796 18 11.8643 18 10C18 6.57835 15.8519 3.65842 12.8307 2.51522L12 5.04299H11.0288L10 8.03875L9 8L8 10H11.0288L13 12.9798H14.9865L16.2932 14.9398ZM10 0C4.47715 0 0 4.47715 0 10C0 15.5228 4.47715 20 10 20C15.5228 20 20 15.5228 20 10C20 4.47715 15.5228 0 10 0Z" fill="var(--fill-0, black)"/>
</svg>
