<svg preserveAspectRatio="none" width="100%" height="100%" overflow="visible" style="display: block;" viewBox="0 0 20 20" fill="none" xmlns="http://www.w3.org/2000/svg">
<path id="path" fill-rule="evenodd" clip-rule="evenodd" d="M10 20C15.5228 20 20 15.5228 20 10C20 4.47715 15.5228 0 10 0C4.47715 0 0 4.47715 0 10C0 15.5228 4.47715 20 10 20ZM7.93881 15.0301C12.1319 15.0301 14.4249 11.5563 14.4249 8.54409C14.4249 8.44538 14.4229 8.34711 14.4183 8.24938C14.8634 7.92764 15.2503 7.52618 15.5556 7.06907C15.1471 7.25049 14.7075 7.3728 14.2464 7.42791C14.7171 7.14578 15.0784 6.6992 15.2488 6.16693C14.8083 6.42804 14.3206 6.61796 13.8013 6.72022C13.3854 6.27716 12.7929 6 12.1374 6C10.8784 6 9.85744 7.02093 9.85744 8.27947C9.85744 8.4584 9.87748 8.63231 9.91655 8.79924C8.02201 8.704 6.34201 7.79684 5.21779 6.41751C5.02184 6.75431 4.90908 7.14578 4.90908 7.56324C4.90908 8.35418 5.31152 9.05236 5.92348 9.4608C5.54961 9.44929 5.19828 9.34653 4.89104 9.1756C4.8905 9.18511 4.8905 9.19467 4.8905 9.20467C4.8905 10.3088 5.67641 11.2305 6.71939 11.4396C6.52797 11.4916 6.32646 11.5197 6.11846 11.5197C5.97161 11.5197 5.82877 11.5052 5.68992 11.4786C5.98015 12.3843 6.82166 13.0434 7.81953 13.062C7.03917 13.6734 6.05632 14.0378 4.98828 14.0378C4.80432 14.0378 4.6229 14.0272 4.44446 14.0062C5.45339 14.6527 6.65126 15.0301 7.93881 15.0301Z" fill="var(--fill-0, black)"/>
</svg>
