<svg preserveAspectRatio="none" width="100%" height="100%" overflow="visible" style="display: block;" viewBox="0 0 20 18" fill="none" xmlns="http://www.w3.org/2000/svg">
<path id="path" fill-rule="evenodd" clip-rule="evenodd" d="M12 6C13.1046 6 14 5.10457 14 4C14 2.89543 13.1046 2 12 2C10.8954 2 10 2.89543 10 4C10 5.10457 10.8954 6 12 6ZM12 8C13.8638 8 15.4299 6.72523 15.874 5H20V3H15.874C15.4299 1.27477 13.8638 0 12 0C10.1362 0 8.57006 1.27477 8.12602 3H0V5H8.12602C8.57006 6.72523 10.1362 8 12 8ZM4.12602 13C4.57006 11.2748 6.13616 10 8 10C9.86384 10 11.4299 11.2748 11.874 13H20V15H11.874C11.4299 16.7252 9.86384 18 8 18C6.13616 18 4.57006 16.7252 4.12602 15H0V13H4.12602ZM10 14C10 15.1046 9.10457 16 8 16C6.89543 16 6 15.1046 6 14C6 12.8954 6.89543 12 8 12C9.10457 12 10 12.8954 10 14Z" fill="var(--fill-0, black)"/>
</svg>
