<svg preserveAspectRatio="none" width="100%" height="100%" overflow="visible" style="display: block;" viewBox="0 0 20 20" fill="none" xmlns="http://www.w3.org/2000/svg">
<g id="path">
<path d="M10.0524 8.30809C9.31617 8.30809 8.71931 7.71118 8.71931 6.97494C8.71931 6.2387 9.31617 5.64184 10.0524 5.64184C10.7886 5.64184 11.3855 6.2387 11.3855 6.97494C11.3855 7.71118 10.7886 8.30809 10.0524 8.30809Z" fill="var(--fill-0, black)"/>
<path fill-rule="evenodd" clip-rule="evenodd" d="M20 10C20 15.5228 15.5228 20 10 20C4.47715 20 0 15.5228 0 10C0 4.47715 4.47715 0 10 0C15.5228 0 20 4.47715 20 10ZM10.0524 3.75C8.27133 3.75 6.82751 5.19386 6.82751 6.97489C6.82751 8.75597 8.27133 10.1999 10.0524 10.1999C11.8335 10.1999 13.2773 8.75597 13.2773 6.97489C13.2773 5.19386 11.8335 3.75 10.0524 3.75ZM11.191 12.766C12.4821 12.503 13.2557 11.8916 13.2967 11.8588C13.6745 11.5558 13.7352 11.0039 13.4322 10.6261C13.1292 10.2483 12.5774 10.1876 12.1995 10.4905C12.1916 10.497 11.3664 11.13 10.0087 11.1309C8.65105 11.13 7.80843 10.497 7.80045 10.4905C7.42257 10.1876 6.87075 10.2483 6.56782 10.6261C6.26484 11.0039 6.32553 11.5558 6.70332 11.8588C6.74481 11.892 7.55041 12.5194 8.87765 12.7762L7.02789 14.7093C6.69173 15.058 6.70184 15.613 7.05046 15.9492C7.22062 16.1133 7.43992 16.1948 7.65905 16.1948C7.88878 16.1948 8.11829 16.1051 8.29034 15.9266L10.0087 14.096L11.9007 15.9385C12.2435 16.2807 12.7986 16.2802 13.1408 15.9375C13.4829 15.5948 13.4825 15.0396 13.1398 14.6974L11.191 12.766Z" fill="var(--fill-0, black)"/>
</g>
</svg>
