<svg preserveAspectRatio="none" width="100%" height="100%" overflow="visible" style="display: block;" viewBox="0 0 20 20" fill="none" xmlns="http://www.w3.org/2000/svg">
<path id="path" fill-rule="evenodd" clip-rule="evenodd" d="M20 10C20 15.5228 15.5228 20 10 20C4.47715 20 0 15.5228 0 10C0 4.47715 4.47715 0 10 0C15.5228 0 20 4.47715 20 10ZM14.1191 5.92888C14.1955 5.97862 14.2743 6.02451 14.3553 6.06637C14.8823 6.32911 15.397 6.4091 15.6505 6.38161V8.4275C15.6505 8.4275 14.927 8.39751 14.3901 8.25501C13.6416 8.05477 13.1619 7.74729 13.1619 7.74729C13.1619 7.74729 12.8289 7.52705 12.8039 7.51205V11.7398C12.8039 11.9748 12.7417 12.5628 12.5552 13.053C12.3917 13.4722 12.1581 13.8605 11.8642 14.2012C11.8642 14.2012 11.4042 14.7714 10.5963 15.1542C9.92281 15.4733 9.32372 15.4908 9.08577 15.4978C9.06633 15.4983 9.0493 15.4988 9.03484 15.4994C9.03484 15.4994 7.92864 15.5439 6.93094 14.8659L6.92594 14.8609V14.8659C6.58863 14.6306 6.28784 14.3468 6.03324 14.0237C5.7175 13.621 5.52376 13.1433 5.47377 13.0033V12.9983C5.39427 12.7605 5.22753 12.1853 5.25253 11.6301C5.29228 10.6519 5.62051 10.0492 5.70751 9.89918C5.93611 9.48788 6.23475 9.11962 6.58996 8.81098C6.99535 8.47115 7.46677 8.21901 7.97448 8.07048C8.4822 7.92195 9.01518 7.88026 9.53981 7.94803L9.53731 10.0464C9.3645 9.99011 9.18385 9.96151 9.00209 9.96168C8.04189 9.96168 7.26368 10.7446 7.26368 11.7116C7.26368 12.6785 8.04189 13.4615 9.00209 13.4615C9.30105 13.4619 9.59495 13.3843 9.8548 13.2365C10.1041 13.0949 10.3148 12.8941 10.4683 12.6519C10.6219 12.4097 10.7135 12.1335 10.7353 11.8476V11.8431C10.7365 11.8371 10.7365 11.8311 10.7365 11.8253C10.7367 11.8208 10.737 11.8164 10.7373 11.8122C10.7379 11.8034 10.7385 11.7951 10.7385 11.7863C10.743 11.6818 10.743 11.5761 10.743 11.4691V3.5H12.8039C12.8007 3.5 12.7792 3.69749 12.8311 4.00273H12.8286C12.8909 4.37046 13.0599 4.89568 13.5124 5.4134C13.6932 5.60893 13.8969 5.782 14.1191 5.92888Z" fill="var(--fill-0, black)"/>
</svg>
