<svg preserveAspectRatio="none" width="100%" height="100%" overflow="visible" style="display: block;" viewBox="0 0 20 20" fill="none" xmlns="http://www.w3.org/2000/svg">
<g id="path">
<path d="M8.25069 12.7639L12.5502 10.1164L8.25069 7.46887V12.7639Z" fill="var(--fill-0, black)"/>
<path fill-rule="evenodd" clip-rule="evenodd" d="M10 20C15.5228 20 20 15.5228 20 10C20 4.47715 15.5228 0 10 0C4.47715 0 0 4.47715 0 10C0 15.5228 4.47715 20 10 20ZM16.6978 6.55972C16.5378 5.9451 16.0667 5.4589 15.4623 5.29378C14.369 5.00023 9.99587 5.00023 9.99587 5.00023C9.99587 5.00023 5.70273 4.98188 4.60945 5.27543C4.00503 5.44055 3.42728 5.9451 3.26729 6.55972C2.97397 7.67889 3.00063 9.99979 3.00063 9.99979C3.00063 9.99979 2.97397 12.3207 3.26729 13.4399C3.42728 14.0545 4.01392 14.559 4.60945 14.7241C5.70273 15.0269 9.99587 14.9993 9.99587 14.9993C9.99587 14.9993 14.289 15.0177 15.3823 14.7241C15.9867 14.559 16.5467 14.0545 16.7067 13.4399C17 12.3299 17 9.99979 17 9.99979C17 9.99979 16.9911 7.67889 16.6978 6.55972Z" fill="var(--fill-0, black)"/>
</g>
</svg>
