<svg preserveAspectRatio="none" width="100%" height="100%" overflow="visible" style="display: block;" viewBox="0 0 20 20" fill="none" xmlns="http://www.w3.org/2000/svg">
<g id="path">
<path d="M7.33341 9.99953C7.33341 11.4722 8.52724 12.666 9.99994 12.666C11.4726 12.666 12.6664 11.4722 12.6664 9.99953C12.6664 8.52684 11.4726 7.33301 9.99994 7.33301C8.52724 7.33301 7.33341 8.52684 7.33341 9.99953Z" fill="var(--fill-0, black)"/>
<path fill-rule="evenodd" clip-rule="evenodd" d="M13.232 3.48894C12.3885 3.45045 12.1355 3.44229 9.99955 3.44229C7.86357 3.44229 7.61055 3.45045 6.76703 3.48894C5.98709 3.52451 5.56352 3.65483 5.28164 3.76438C4.90824 3.90949 4.64176 4.08284 4.36183 4.36278C4.08191 4.6427 3.90855 4.90918 3.76344 5.28258C3.65389 5.56446 3.52358 5.98803 3.48799 6.76797C3.44951 7.61149 3.44135 7.86451 3.44135 10.0005C3.44135 12.1364 3.44951 12.3894 3.48799 13.233C3.52358 14.0129 3.65389 14.4365 3.76344 14.7184C3.90855 15.0918 4.08192 15.3582 4.36184 15.6382C4.64176 15.9181 4.90824 16.0914 5.28164 16.2366C5.56352 16.3461 5.98709 16.4764 6.76703 16.512C7.61046 16.5505 7.86341 16.5586 9.99955 16.5586C12.1357 16.5586 12.3886 16.5505 13.232 16.512C14.012 16.4764 14.4355 16.3461 14.7174 16.2366C15.0908 16.0914 15.3573 15.9181 15.6372 15.6382C15.9172 15.3582 16.0905 15.0918 16.2356 14.7184C16.3452 14.4365 16.4755 14.0129 16.5111 13.233C16.5495 12.3894 16.5577 12.1364 16.5577 10.0005C16.5577 7.86451 16.5495 7.61149 16.5111 6.76797C16.4755 5.98803 16.3452 5.56446 16.2356 5.28258C16.0905 4.90918 15.9172 4.6427 15.6372 4.36275C15.3573 4.08284 15.0908 3.90949 14.7174 3.76438C14.4355 3.65483 14.012 3.52451 13.232 3.48894ZM5.89206 9.99953C5.89206 7.73079 7.73119 5.89165 9.99994 5.89165C12.2686 5.89165 14.1078 7.73079 14.1078 9.99953C14.1078 12.2682 12.2686 14.1074 9.99994 14.1074C7.73119 14.1074 5.89206 12.2682 5.89206 9.99953ZM15.2301 5.72967C15.2301 6.25984 14.8003 6.6896 14.2702 6.6896C13.74 6.6896 13.3102 6.25984 13.3102 5.72967C13.3102 5.1995 13.74 4.76971 14.2702 4.76971C14.8003 4.76971 15.2301 5.1995 15.2301 5.72967Z" fill="var(--fill-0, black)"/>
<path fill-rule="evenodd" clip-rule="evenodd" d="M0.572651 3.83232C0 5.1047 0 6.73646 0 10C0 13.2635 0 14.8953 0.572651 16.1677C1.22448 17.616 2.38401 18.7755 3.83232 19.4273C5.10469 20 6.73646 20 10 20C13.2635 20 14.8953 20 16.1677 19.4273C17.616 18.7755 18.7755 17.616 19.4273 16.1677C20 14.8953 20 13.2635 20 10C20 6.73646 20 5.1047 19.4273 3.83232C18.7755 2.38401 17.616 1.22448 16.1677 0.572651C14.8953 0 13.2635 0 10 0C6.73646 0 5.10469 0 3.83232 0.572651C2.38401 1.22448 1.22448 2.38401 0.572651 3.83232ZM6.70133 2.04908C7.55457 2.01015 7.82699 2.00094 9.99955 2.00094C12.1721 2.00094 12.4445 2.01015 13.2977 2.04908C14.1492 2.08791 14.7307 2.22315 15.2395 2.42089C15.7656 2.62532 16.2117 2.89885 16.6564 3.34357C17.1011 3.78829 17.3747 4.23443 17.5791 4.76047C17.7768 5.2693 17.9121 5.85082 17.9509 6.70227C17.9899 7.55551 17.9991 7.82793 17.9991 10.0005C17.9991 12.173 17.9899 12.4454 17.9509 13.2987C17.9121 14.1501 17.7768 14.7316 17.5791 15.2405C17.3747 15.7665 17.1011 16.2126 16.6564 16.6574C16.2117 17.1021 15.7656 17.3756 15.2395 17.5801C14.7307 17.7778 14.1492 17.913 13.2977 17.9519C12.4445 17.9908 12.1721 18 9.99955 18C7.82699 18 7.55457 17.9908 6.70133 17.9519C5.84988 17.913 5.26836 17.7778 4.75952 17.5801C4.23348 17.3756 3.78738 17.1021 3.34264 16.6574C2.89792 16.2126 2.62439 15.7665 2.41996 15.2405C2.22222 14.7316 2.08699 14.1501 2.04813 13.2987C2.0092 12.4454 2 12.173 2 10.0005C2 7.82793 2.0092 7.55551 2.04813 6.70227C2.08699 5.85082 2.22222 5.2693 2.41996 4.76047C2.62439 4.23443 2.89792 3.78829 3.34264 3.34357C3.78738 2.89885 4.23348 2.62532 4.75952 2.42089C5.26836 2.22315 5.84988 2.08791 6.70133 2.04908Z" fill="var(--fill-0, black)"/>
</g>
</svg>
