<svg preserveAspectRatio="none" width="100%" height="100%" overflow="visible" style="display: block;" viewBox="0 0 20 20" fill="none" xmlns="http://www.w3.org/2000/svg">
<path id="path" fill-rule="evenodd" clip-rule="evenodd" d="M10 20C15.5228 20 20 15.5228 20 10C20 4.47715 15.5228 0 10 0C4.47715 0 0 4.47715 0 10C0 15.5228 4.47715 20 10 20ZM7.5 5.375C7.5 6.13439 6.88439 6.75 6.125 6.75C5.36561 6.75 4.75 6.13439 4.75 5.375C4.75 4.61561 5.36561 4 6.125 4C6.88439 4 7.5 4.61561 7.5 5.375ZM7.31139 7.78689H4.90036V15H7.31139V7.78689ZM15.75 10.5279C15.75 8.33388 14.3697 7.58251 13.0557 7.58251C12.6025 7.57976 12.1561 7.69129 11.7577 7.90674C11.3594 8.12218 11.0221 8.4345 10.7772 8.81475V7.78689H8.51691V15H10.9279V11.0749C10.9014 10.884 10.9159 10.6897 10.9705 10.5048C11.025 10.32 11.1184 10.1488 11.2444 10.0027C11.3704 9.85657 11.5261 9.73887 11.7012 9.65737C11.8763 9.57592 12.0668 9.53252 12.26 9.53005C12.9231 9.53005 13.339 9.8847 13.339 11.0448V15H15.75V10.5279Z" fill="var(--fill-0, black)"/>
</svg>
