<svg preserveAspectRatio="none" width="100%" height="100%" overflow="visible" style="display: block;" viewBox="0 0 20 20" fill="none" xmlns="http://www.w3.org/2000/svg">
<path id="path" d="M16.6909 2.60455L13.8227 5.47273C12.7864 4.48182 11.4682 3.97727 10 3.97727C7.39547 3.97727 5.19092 5.73637 4.40456 8.1C4.20456 8.7 4.09091 9.34091 4.09091 10C4.09091 10.6591 4.20455 11.3 4.40455 11.9C5.19091 14.2636 7.39547 16.0227 10 16.0227C11.3455 16.0227 12.4909 15.6682 13.3864 15.0682C14.4455 14.3591 15.15 13.3 15.3818 12.05H10V8.18182H19.4182C19.5364 8.83636 19.6 9.51818 19.6 10.2273C19.6 13.2727 18.5091 15.8364 16.6182 17.5773C14.9636 19.1045 12.7 20 10 20C6.09092 20 2.7091 17.7591 1.06365 14.4909C0.386373 13.1409 0 11.6136 0 10C0 8.38636 0.386364 6.85909 1.06364 5.50909C2.70909 2.24091 6.09092 0 10 0C12.6955 0 14.9591 0.99091 16.6909 2.60455Z" fill="var(--fill-0, black)"/>
</svg>
