<svg preserveAspectRatio="none" width="100%" height="100%" overflow="visible" style="display: block;" viewBox="0 0 20 20" fill="none" xmlns="http://www.w3.org/2000/svg">
<path id="path" d="M10 0C15.5228 0 20 4.47715 20 10C20 15.5228 15.5228 20 10 20C4.47715 20 0 15.5228 0 10C0 4.47715 4.47715 0 10 0ZM10.0293 3C6.18691 3 3.06017 6.11241 3.05859 9.9375C3.05828 11.16 3.3794 12.3534 3.98926 13.4053L3 17L6.69531 16.0352C7.71349 16.5879 8.85985 16.8794 10.0264 16.8799H10.0293C13.871 16.8799 16.9983 13.7672 17 9.94238C17.0006 8.08867 16.2758 6.34542 14.96 5.03418C13.6438 3.72313 11.8937 3.00098 10.0293 3ZM10.0312 4.17188C11.5788 4.17251 13.034 4.77252 14.1279 5.8623C15.2218 6.95213 15.8238 8.40169 15.8232 9.94238C15.8218 13.1216 13.2226 15.708 10.0293 15.708H10.0273C8.98748 15.7075 7.96745 15.4297 7.07812 14.9043L6.86621 14.7793L4.67383 15.3516L5.25879 13.2246L5.12109 13.0059C4.54124 12.0878 4.23481 11.0268 4.23535 9.9375C4.23649 6.75848 6.83546 4.172 10.0312 4.17188ZM7.50195 6.7002C7.38455 6.7002 7.19339 6.7437 7.03223 6.91895C6.87092 7.09424 6.41699 7.51819 6.41699 8.37988C6.41706 9.24159 7.04695 10.0745 7.13477 10.1914C7.22361 10.3097 8.35306 12.1333 10.1406 12.835C11.6264 13.4182 11.9293 13.3026 12.252 13.2734C12.5747 13.244 13.2919 12.8492 13.4385 12.4404C13.5851 12.0315 13.5859 11.6807 13.542 11.6074C13.4979 11.5343 13.3801 11.4909 13.2041 11.4033C13.0279 11.3156 12.1632 10.8924 12.002 10.834C11.8408 10.7756 11.7237 10.746 11.6064 10.9209C11.4892 11.0962 11.1516 11.4906 11.0488 11.6074C10.9463 11.7244 10.844 11.7389 10.668 11.6514C10.4918 11.5635 9.92483 11.3787 9.25293 10.7822C8.7301 10.3181 8.37713 9.74458 8.27441 9.56934C8.17213 9.39428 8.26338 9.29918 8.35156 9.21191C8.43052 9.13337 8.52813 9.00752 8.61621 8.90527C8.70368 8.80319 8.73257 8.72986 8.79102 8.61328C8.84971 8.49631 8.82042 8.39421 8.77637 8.30664C8.73197 8.21772 8.39062 7.3529 8.23438 7.00684C8.10257 6.71537 7.96413 6.70923 7.83887 6.7041C7.73638 6.69977 7.61904 6.70019 7.50195 6.7002Z" fill="var(--fill-0, black)"/>
</svg>
