<svg preserveAspectRatio="none" width="100%" height="100%" overflow="visible" style="display: block;" viewBox="0 0 23 17" fill="none" xmlns="http://www.w3.org/2000/svg">
<path id="Delete Button" d="M17.6776 0.00292969C17.922 0.0029301 18.0333 0.00453088 18.1581 0.00976562C18.5352 0.0143584 18.9115 0.0463928 19.2948 0.107422C19.6948 0.178267 20.0832 0.306427 20.4501 0.490234C20.8193 0.678307 21.1561 0.924451 21.4462 1.2168C21.7372 1.50776 21.9818 1.84199 22.1728 2.21484C22.3544 2.58002 22.4823 2.9702 22.5546 3.38184C22.6138 3.75332 22.6462 4.12864 22.6503 4.4873C22.6533 4.56312 22.6546 4.63975 22.6562 4.74121C22.6567 4.78164 22.6566 4.78177 22.6571 4.82129C22.6582 4.89873 22.6591 4.93382 22.6601 4.98828V11.9775C22.6592 12.0203 22.6582 12.055 22.6571 12.1338C22.655 12.2996 22.6536 12.3747 22.6503 12.4531C22.6463 12.8343 22.6135 13.2148 22.5507 13.5938C22.4816 13.9993 22.353 14.3931 22.1659 14.7676C21.9765 15.1363 21.7306 15.4732 21.4384 15.7666C21.1445 16.0621 20.8049 16.3094 20.4335 16.498C20.065 16.6853 19.67 16.8153 19.2597 16.8848C18.8851 16.9464 18.5062 16.9806 18.1278 16.9873C18.0583 16.9887 18.0038 16.99 17.8827 16.9912C17.7658 16.9924 17.7138 16.9928 17.6376 16.9941H10.2167C10.154 16.9929 10.1021 16.9924 9.98623 16.9912C9.86654 16.99 9.81263 16.9896 9.74795 16.9883C9.37116 16.9829 8.99461 16.9488 8.61514 16.8867C8.21364 16.816 7.82418 16.6882 7.4501 16.502C7.08487 16.3128 6.75124 16.0681 6.46084 15.7773C6.44696 15.7635 6.42545 15.7419 6.38955 15.7041C6.38247 15.6967 6.36031 15.6736 6.34561 15.6592C6.20634 15.5247 6.14405 15.4645 6.06729 15.3877C6.06729 15.3877 3.59377 12.916 3.56631 12.8896C3.50792 12.8347 3.44983 12.7761 3.39444 12.7178C3.3425 12.6682 3.29725 12.6235 3.20596 12.5322L1.25186 10.5752L1.06631 10.3896C1.01588 10.3392 0.978494 10.3006 0.915921 10.2334C0.750416 10.0707 0.593972 9.89845 0.447171 9.71875C0.310677 9.57318 0.200694 9.40467 0.122953 9.2207L0.104398 9.16895C-0.037056 8.732 -0.0378688 8.26135 0.120999 7.77734C0.198177 7.59125 0.308913 7.42068 0.447171 7.27441C0.593819 7.09343 0.750917 6.92194 0.89932 6.77832C0.978868 6.6938 1.01592 6.65489 1.06631 6.60449C1.15664 6.51416 1.19595 6.47456 1.25186 6.41602L3.39541 4.27246C3.43407 4.2338 3.4531 4.2154 3.47647 4.19238C3.50874 4.1606 3.53772 4.13181 3.55264 4.11816C3.57246 4.09835 3.59254 4.08035 3.61123 4.06543L5.746 1.92773L6.06729 1.60645C6.14404 1.52969 6.20634 1.46943 6.34561 1.33496C6.3471 1.33349 6.38311 1.29783 6.39151 1.28906C6.42582 1.25293 6.44625 1.23042 6.45987 1.2168C6.75051 0.925813 7.08462 0.681062 7.45889 0.487305C7.82401 0.305654 8.21382 0.177732 8.62491 0.105469C8.99676 0.0458716 9.37274 0.0136133 9.73135 0.00976562C9.87361 0.00407677 9.98478 0.00284231 10.2187 0.00292969C10.3803 0.000237813 10.5088 5.00607e-07 10.7919 0H17.3993C17.5043 0.000442151 17.5977 0.00151342 17.6776 0.00292969ZM10.2294 1.26172C10.0021 1.26172 9.90221 1.26331 9.76455 1.26855C9.44984 1.27214 9.13522 1.29847 8.83389 1.34668C8.55123 1.39641 8.27708 1.48712 8.0292 1.61035C7.77902 1.73992 7.54987 1.90683 7.35049 2.10645C7.34887 2.10807 7.34033 2.11756 7.30069 2.15918C7.2535 2.20858 7.2322 2.23135 7.20791 2.25293C7.08257 2.37398 7.02464 2.42937 6.95694 2.49707L6.63662 2.81738L4.46475 4.99219C4.44172 5.01521 4.41817 5.03572 4.35928 5.08887C4.33897 5.10888 4.32248 5.1247 4.28506 5.16211L4.09659 5.35156L2.15323 7.29395C2.09854 7.35151 2.05488 7.3962 1.95694 7.49414C1.91833 7.53274 1.88722 7.56593 1.79678 7.66113C1.65981 7.79443 1.53063 7.93588 1.41104 8.08496L1.36807 8.13379C1.33764 8.16467 1.31268 8.20032 1.29385 8.23926C1.24507 8.40697 1.24447 8.58513 1.29287 8.75293C1.31285 8.79357 1.33936 8.83074 1.371 8.86328L1.40909 8.90625C1.53063 9.05629 1.6605 9.19969 1.81534 9.35254C1.88652 9.42818 1.91832 9.46138 1.95694 9.5L2.14248 9.68555L4.09659 11.6426C4.18704 11.733 4.22683 11.7721 4.29873 11.8418C4.3336 11.8788 4.37084 11.9166 4.41592 11.96C4.42543 11.9684 4.43924 11.9814 4.46182 12.002L6.95694 14.4971C7.02464 14.5648 7.08254 14.6211 7.20791 14.7422C7.23198 14.7636 7.25332 14.7853 7.30166 14.8359C7.34007 14.8763 7.34957 14.8858 7.35147 14.8877C7.55055 15.087 7.77937 15.255 8.02041 15.3799C8.27724 15.5076 8.55115 15.5981 8.82608 15.6465C9.13683 15.6973 9.45108 15.7249 9.76944 15.7295C9.83211 15.7307 9.88328 15.7313 9.99893 15.7324C10.119 15.7336 10.1736 15.7341 10.2294 15.7354H17.6249C17.6944 15.734 17.749 15.7336 17.87 15.7324C17.9871 15.7313 18.039 15.7308 18.1044 15.7295C18.4229 15.7239 18.7411 15.6948 19.0526 15.6436C19.3347 15.5958 19.608 15.5056 19.8632 15.376C20.1154 15.2478 20.3459 15.0798 20.5458 14.8789C20.7468 14.6771 20.916 14.4452 21.0429 14.1982C21.1713 13.9411 21.2606 13.6662 21.3085 13.3857C21.3603 13.0732 21.3887 12.7567 21.3925 12.4219L21.4013 11.9648V5.00098C21.4004 4.95532 21.3994 4.91818 21.3983 4.83789C21.3978 4.79873 21.3979 4.79851 21.3974 4.75977C21.396 4.66799 21.3945 4.60127 21.3915 4.52051C21.3877 4.20547 21.3613 3.89106 21.3134 3.58984C21.2637 3.30717 21.1733 3.03263 21.0487 2.78223C20.921 2.53288 20.7545 2.30536 20.5546 2.10547C20.357 1.90638 20.1289 1.7397 19.8827 1.61426C19.6282 1.48678 19.3562 1.39646 19.0868 1.34863C18.7745 1.29897 18.4587 1.27187 18.1249 1.26758C18.0051 1.26279 17.9057 1.26181 17.6679 1.26172C17.583 1.2603 17.4938 1.25921 17.3935 1.25879H10.7919C10.5159 1.25879 10.3921 1.2591 10.2294 1.26172ZM16.2401 5.14258C16.4013 4.98067 16.6442 4.93136 16.8554 5.01855C17.0664 5.10572 17.2039 5.31177 17.204 5.54004C17.204 5.69214 17.1421 5.83377 17.039 5.9375L17.0458 5.94434L14.4999 8.49121L17.0038 10.9912C17.0186 11.0032 17.0349 11.0137 17.0487 11.0273C17.2106 11.1885 17.259 11.4314 17.1718 11.6426C17.0846 11.8537 16.8787 11.9912 16.6503 11.9912C16.4978 11.9911 16.3566 11.9288 16.2528 11.8252L16.246 11.833L13.7011 9.29102L11.1601 11.8359L11.1513 11.8271C11.1004 11.877 11.041 11.919 10.9726 11.9473C10.7606 12.0348 10.5162 11.9858 10.3544 11.8232C10.1348 11.6023 10.1348 11.2453 10.3544 11.0244C10.3849 10.9937 10.4194 10.9677 10.455 10.9453L12.9032 8.49414L10.3544 5.94824L10.3632 5.93848C10.3135 5.88765 10.2713 5.82804 10.2431 5.75977C10.1558 5.54799 10.2049 5.30431 10.3671 5.14258C10.5881 4.92253 10.9459 4.92253 11.1669 5.14258C11.197 5.1726 11.2219 5.20628 11.244 5.24121L13.7021 7.69434L16.1855 5.20801C16.202 5.1853 16.2198 5.16316 16.2401 5.14258Z" fill="var(--fill-0, white)"/>
</svg>
