<svg preserveAspectRatio="none" width="100%" height="100%" overflow="visible" style="display: block;" viewBox="0 0 20 18" fill="none" xmlns="http://www.w3.org/2000/svg">
<g id="path">
<path d="M13 10C13 11.6569 11.6569 13 10 13C8.34315 13 7 11.6569 7 10C7 8.34315 8.34315 7 10 7C11.6569 7 13 8.34315 13 10Z" fill="var(--fill-0, black)"/>
<path fill-rule="evenodd" clip-rule="evenodd" d="M7.58579 0H12.4142L15.4142 3L15.8385 3C16.3657 2.99998 16.8205 2.99997 17.195 3.03057C17.5904 3.06287 17.9836 3.13419 18.362 3.32698C18.9265 3.6146 19.3854 4.07354 19.673 4.63803C19.8658 5.01641 19.9371 5.40963 19.9694 5.80497C20 6.17954 20 6.63429 20 7.16143V13.8386C20 14.3657 20 14.8205 19.9694 15.195C19.9371 15.5904 19.8658 15.9836 19.673 16.362C19.3854 16.9265 18.9265 17.3854 18.362 17.673C17.9836 17.8658 17.5904 17.9371 17.195 17.9694C16.8205 18 16.3657 18 15.8386 18H4.16144C3.6343 18 3.17954 18 2.80498 17.9694C2.40963 17.9371 2.01641 17.8658 1.63803 17.673C1.07355 17.3854 0.614604 16.9265 0.326984 16.362C0.13419 15.9836 0.0628738 15.5904 0.0305728 15.195C-2.94633e-05 14.8205 -1.54746e-05 14.3657 7.43003e-07 13.8386V7.16146C-1.54745e-05 6.63434 -2.94652e-05 6.17953 0.0305728 5.80497C0.0628738 5.40963 0.13419 5.01641 0.326984 4.63803C0.614604 4.07354 1.07355 3.6146 1.63803 3.32698C2.01641 3.13419 2.40963 3.06287 2.80498 3.03057C3.17955 2.99997 3.63431 2.99998 4.16145 3L4.58579 3L7.58579 0ZM15 10C15 12.7614 12.7614 15 10 15C7.23858 15 5 12.7614 5 10C5 7.23858 7.23858 5 10 5C12.7614 5 15 7.23858 15 10Z" fill="var(--fill-0, black)"/>
</g>
</svg>
