<svg preserveAspectRatio="none" width="100%" height="100%" overflow="visible" style="display: block;" viewBox="0 0 11 14" fill="none" xmlns="http://www.w3.org/2000/svg">
<path id="path" d="M7.25853 3.53893C6.87682 3.19909 6.37131 3.04989 5.87324 3.1287C4.90505 3.28191 3.26484 3.76884 2.5 4L1.42174 6.43724L2.29908 6.79902L3.26484 5.3L4 5.1L3.00904 8.98914L0 10.0435V11.5971L3.65968 10.7993C3.93283 10.7398 4.16194 10.5488 4.27611 10.2856L5.01541 8.58112L5.99718 10.5038L5.23106 14H6.65626L7.73892 10.8271C7.80503 10.6334 7.80514 10.4221 7.73923 10.2282L6.81624 7.51412L6.59937 6.79902L6.62506 6.74414L6.64783 6.68761L7 5.5L8 6.5L11 5.47372L10.9145 4.50629L8.57271 4.73911C8.26374 4.43928 7.69613 3.92852 7.25853 3.53893ZM7.15545 0.0264963C6.41258 -0.123211 5.69317 0.37666 5.5491 1.14244C5.40372 1.90998 5.88698 2.65254 6.63023 2.80305C7.37163 2.95315 8.09089 2.45261 8.23592 1.68548C8.38127 0.919514 7.89734 0.176812 7.15545 0.0264963Z" fill="var(--fill-0, black)"/>
</svg>
