<svg preserveAspectRatio="none" width="100%" height="100%" overflow="visible" style="display: block;" viewBox="0 0 20 20" fill="none" xmlns="http://www.w3.org/2000/svg">
<path id="path" d="M10 0C15.5228 0 20 4.47715 20 10C20 15.5228 15.5228 20 10 20C4.47715 20 0 15.5228 0 10C0 4.47715 4.47715 0 10 0ZM3.75 6.33008C3.85087 11.1707 6.27139 14.0799 10.5146 14.0801H10.7559V11.3105C12.315 11.4658 13.4936 12.6062 13.9668 14.0801H16.1709C15.5659 11.8772 13.9754 10.659 12.9824 10.1934C13.9754 9.61916 15.3715 8.22272 15.7051 6.33008H13.7031C13.2687 7.86595 11.9815 9.26247 10.7559 9.39453V6.33008H8.75391V11.6982C7.51268 11.3879 5.94582 9.88298 5.87598 6.33008H3.75Z" fill="var(--fill-0, black)"/>
</svg>
