<svg preserveAspectRatio="none" width="100%" height="100%" overflow="visible" style="display: block;" viewBox="0 0 12 15" fill="none" xmlns="http://www.w3.org/2000/svg">
<path id="Subtract" d="M6.31429 14.6667H5.01905C4.85863 13.5632 4.85597 11.9846 4.04762 11.1719C3.93223 11.0559 3.33334 10.3889 2.02381 10.3889H1.21429L0.809524 9.45312C0.264213 8.18254 0 7.1878 0 6.01562C0 2.95568 2.30202 0 5.66667 0C9.03132 0 11.3333 2.95568 11.3333 6.01562C11.3333 7.1878 11.0691 8.18254 10.5238 9.45312L10.119 10.3889H9.30952C7.99997 10.3889 7.28571 11.1719 7.28571 11.1719C6.55049 11.91 6.31429 13.6202 6.31429 14.6667Z" fill="url(#paint0_linear_360_243309)"/>
<defs>
<linearGradient id="paint0_linear_360_243309" x1="6.92786" y1="-1.21511" x2="6.77112" y2="15.8842" gradientUnits="userSpaceOnUse">
<stop stop-color="#FFE9B6"/>
<stop offset="0.0843215" stop-color="#FFC94C"/>
<stop offset="0.904055" stop-color="#EFA701"/>
<stop offset="1" stop-color="#FFE9B6"/>
</linearGradient>
</defs>
</svg>
