<svg preserveAspectRatio="none" width="100%" height="100%" overflow="visible" style="display: block;" viewBox="0 0 21 18" fill="none" xmlns="http://www.w3.org/2000/svg">
<path id="Path" d="M12.5 4.99999H11V9.99999L15.28 12.54L16 11.33L12.5 9.24999V4.99999ZM12 0C9.61304 0 7.32386 0.94821 5.63603 2.63604C3.94821 4.32386 3 6.61304 3 8.99999H0L3.96 13.03L7.99999 8.99999H4.99999C4.99999 7.14348 5.73749 5.363 7.05024 4.05025C8.363 2.73749 10.1435 2 12 2C13.8565 2 15.637 2.73749 16.9497 4.05025C18.2625 5.363 19 7.14348 19 8.99999C19 10.8565 18.2625 12.637 16.9497 13.9497C15.637 15.2625 13.8565 16 12 16C10.07 16 8.31999 15.21 7.05999 13.94L5.63999 15.36C6.4716 16.2004 7.46233 16.8667 8.55432 17.32C9.64631 17.7733 10.8177 18.0044 12 18C14.3869 18 16.6761 17.0518 18.3639 15.3639C20.0518 13.6761 21 11.3869 21 8.99999C21 6.61304 20.0518 4.32386 18.3639 2.63604C16.6761 0.94821 14.3869 0 12 0Z" fill="var(--fill-0, black)"/>
</svg>
