<svg preserveAspectRatio="none" width="100%" height="100%" overflow="visible" style="display: block;" viewBox="0 0 32 32" fill="none" xmlns="http://www.w3.org/2000/svg">
<g id="Emojis Dark">
<path id="Emoji" fill-rule="evenodd" clip-rule="evenodd" d="M16 6C21.5228 6 26 10.4772 26 16C26 21.5228 21.5228 26 16 26C10.4772 26 6 21.5228 6 16C6 10.4772 10.4772 6 16 6ZM16 7.165C20.8793 7.16555 24.8344 11.1214 24.834 16.0007C24.8336 20.88 20.878 24.8352 15.9987 24.835C11.1194 24.8348 7.164 20.8793 7.164 16C7.16407 13.6567 8.09506 11.4093 9.75214 9.75243C11.4092 8.09553 13.6567 7.1648 16 7.165V7.165ZM12.8365 11.6625C12.5274 11.6588 12.2297 11.7792 12.0102 11.9968C11.7906 12.2144 11.6674 12.5109 11.6682 12.82C11.6682 13.4652 12.1913 13.9882 12.8365 13.9882C13.4817 13.9882 14.0047 13.4652 14.0047 12.82C14.0056 12.5109 13.8824 12.2144 13.6628 11.9968C13.4432 11.7792 13.1456 11.6588 12.8365 11.6625V11.6625ZM22.6642 17.7225C22.1317 20.6 19.3545 23.0025 15.9987 23.0025C12.6697 23.0025 9.90875 20.635 9.345 17.79C9.23075 17.08 9.81225 16.9125 10.36 17.045C12.1924 17.5748 14.0927 17.8326 16 17.81C17.903 17.8321 19.799 17.5752 21.6275 17.0475C22.16 16.9125 22.7302 17.065 22.6642 17.7225V17.7225ZM20.8565 18.1225C20.8045 18.1425 20.7517 18.1575 20.6985 18.175C20.693 18.1775 20.869 18.12 20.8637 18.1225C19.2826 18.5578 17.6481 18.769 16.0082 18.75C14.0512 18.75 12.301 18.5325 11.0965 18.1C10.2232 17.84 10.3907 18.8675 11.0045 19.1825C12.5746 19.8973 14.2829 20.2575 16.008 20.2375C18.06 20.2375 19.8885 19.76 21.0962 19.1425C21.6677 18.775 21.7807 17.79 20.8565 18.1225V18.1225ZM19.17 11.6625C18.8609 11.6588 18.5632 11.7792 18.3436 11.9968C18.124 12.2143 18.0007 12.5109 18.0015 12.82C17.9953 13.2415 18.2167 13.6336 18.5807 13.8462C18.9447 14.0587 19.395 14.0587 19.7591 13.8462C20.1231 13.6336 20.3444 13.2415 20.3383 12.82C20.339 12.5109 20.2158 12.2144 19.9963 11.9969C19.7767 11.7793 19.4791 11.6589 19.17 11.6625V11.6625Z" fill="var(--fill-0, black)"/>
</g>
</svg>
