<svg preserveAspectRatio="none" width="100%" height="100%" overflow="visible" style="display: block;" viewBox="0 0 16 20" fill="none" xmlns="http://www.w3.org/2000/svg">
<path id="path" fill-rule="evenodd" clip-rule="evenodd" d="M4 4C4 1.79086 5.79086 0 8 0C10.2091 0 12 1.79086 12 4V9C12 11.2091 10.2091 13 8 13C5.79086 13 4 11.2091 4 9V4ZM2 7V9C2 12.3137 4.68629 15 8 15C11.3137 15 14 12.3137 14 9V7H16V9C16 13.0796 12.9463 16.446 9 16.9381V20H7V16.9381C3.05369 16.446 0 13.0796 0 9V7H2Z" fill="var(--fill-0, black)"/>
</svg>
