<svg preserveAspectRatio="none" width="100%" height="100%" overflow="visible" style="display: block;" viewBox="0 0 20 20" fill="none" xmlns="http://www.w3.org/2000/svg">
<path id="Union" fill-rule="evenodd" clip-rule="evenodd" d="M8.77959 18.8163C9.53672 19.5735 10.5738 20.0343 11.6284 19.8495C16.3227 19.0267 19.8902 14.93 19.8902 10C19.8902 4.47715 15.4131 0 9.89024 0C4.96026 0 0.863521 3.56752 0.0407779 8.2618C-0.144069 9.31646 0.316766 10.3535 1.0739 11.1107L8.77959 18.8163ZM9.80505 17.0134C9.86095 16.6843 9.89011 16.3458 9.89011 16C9.89011 12.6863 7.20382 10 3.89011 10C3.54419 10 3.20568 10.0292 2.87673 10.0851L9.80505 17.0134ZM2.09242 8.20301C2.90701 4.65021 6.09102 2 9.89024 2C14.3085 2 17.8902 5.58172 17.8902 10C17.8902 13.7993 15.2399 16.9833 11.6871 17.7979C11.82 17.2193 11.8901 16.6174 11.8901 16C11.8901 11.5817 8.30839 8 3.89011 8C3.27293 8 2.67105 8.07007 2.09242 8.20301Z" fill="var(--fill-0, black)"/>
</svg>
