<svg preserveAspectRatio="none" width="100%" height="100%" overflow="visible" style="display: block;" viewBox="0 0 30 26" fill="none" xmlns="http://www.w3.org/2000/svg">
<path id="Vector" fill-rule="evenodd" clip-rule="evenodd" d="M3.5 24H9V21H5H4H3.5C2.673 21 2 21.673 2 22.5C2 23.327 2.673 24 3.5 24ZM6 19H25C25.552 19 26 18.552 26 18V2H16.802L15.913 6H20V8H15.47L15.223 9.111C14.993 10.135 14.235 10.975 13.243 11.307L12.265 11.633L13.448 15.184L11.552 15.816L10.368 12.265L8.052 13.036C6.824 13.446 6 14.59 6 15.883V19ZM11 24H20V21H11V24ZM29.316 24.948C27.223 25.646 25.043 26 22.838 26H3.5C1.57 26 0 24.43 0 22.5C0 20.57 1.57 19 3.5 19H4V15.883C4 13.728 5.374 11.821 7.419 11.14L12.609 9.41C12.94 9.299 13.193 9.018 13.271 8.677L15.198 0H28V18C28 19.654 26.654 21 25 21H22V24H22.838C24.827 24 26.794 23.681 28.684 23.052L29.316 24.948ZM24 12V14C23.505 14 22 14 22 17H20C20 13.869 21.495 12 24 12Z" fill="var(--fill-0, #DA0000)"/>
</svg>
