<svg preserveAspectRatio="none" width="100%" height="100%" overflow="visible" style="display: block;" viewBox="0 0 12 12" fill="none" xmlns="http://www.w3.org/2000/svg">
<path id="path" d="M8.7998 8.16361e-10C9.91991 8.16361e-10 10.4804 -0.00021353 10.9082 0.217773C11.2845 0.409508 11.5905 0.715544 11.7822 1.0918C12.0002 1.51962 12 2.08009 12 3.2002V8.7998C12 9.91991 12.0002 10.4804 11.7822 10.9082C11.5905 11.2845 11.2845 11.5905 10.9082 11.7822C10.4804 12.0002 9.91991 12 8.7998 12H3.2002C2.08009 12 1.51962 12.0002 1.0918 11.7822C0.715544 11.5905 0.409508 11.2845 0.217773 10.9082C-0.00021353 10.4804 8.16361e-10 9.91991 8.16361e-10 8.7998V3.2002C8.16361e-10 2.08009 -0.00021353 1.51962 0.217773 1.0918C0.409508 0.715544 0.715544 0.409508 1.0918 0.217773C1.51962 -0.00021353 2.08009 8.16361e-10 3.2002 8.16361e-10H8.7998ZM4 3V4L6.82422 4.1875L2.98926 8.30371L3.69629 9.01074L7.81152 5.1748L8 8H9V3H4Z" fill="var(--fill-0, black)"/>
</svg>
