<svg preserveAspectRatio="none" width="100%" height="100%" overflow="visible" style="display: block;" viewBox="0 0 20 18" fill="none" xmlns="http://www.w3.org/2000/svg">
<path id="path" d="M13 4V3C13 2.44772 12.5523 2 12 2H8C7.44772 2 7 2.44772 7 3V4H13ZM2 15C2 15.5523 2.44772 16 3 16H17C17.5523 16 18 15.5523 18 15V11H15V13H13V11H7V13H5V11H2V15ZM3 6C2.44772 6 2 6.44772 2 7V9H18V7C18 6.44772 17.5523 6 17 6H3ZM17 4C18.6569 4 20 5.34315 20 7V15C20 16.6569 18.6569 18 17 18H3C1.34315 18 0 16.6569 0 15V7C0 5.34315 1.34315 4 3 4H5V3C5 1.34315 6.34315 0 8 0H12C13.6569 0 15 1.34315 15 3V4H17Z" fill="var(--fill-0, black)"/>
</svg>
