<svg preserveAspectRatio="none" width="100%" height="100%" overflow="visible" style="display: block;" viewBox="0 0 24 18" fill="none" xmlns="http://www.w3.org/2000/svg">
<path id="Delete" d="M18.7255 0.00195312C18.8858 0.00195831 19.0527 0.00441566 19.2333 0.00878906C19.633 0.0140256 20.0322 0.0489955 20.4335 0.114258C20.8597 0.188111 21.2729 0.325167 21.6591 0.520508C22.0506 0.718696 22.4085 0.977696 22.7167 1.28809C23.0248 1.59706 23.2822 1.95266 23.4833 2.3457C23.6775 2.73258 23.8134 3.14611 23.8876 3.57812C23.9521 3.97275 23.9877 4.37191 23.9921 4.75977C23.9938 4.81523 23.995 4.87281 23.996 4.93555C23.9972 5.00264 23.9977 5.05513 23.999 5.1748C23.9995 5.22481 23.9993 5.22493 23.9999 5.28223V12.6826C23.9991 12.7436 23.9987 12.7438 23.998 12.8066C23.9957 13.0008 23.9942 13.0885 23.9912 13.1875C23.9864 13.5909 23.9517 13.9941 23.8857 14.3975C23.8118 14.8276 23.6746 15.2444 23.4765 15.6387C23.2764 16.03 23.0167 16.3883 22.706 16.7002C22.394 17.0127 22.0339 17.2732 21.6396 17.4727C21.2505 17.6692 20.8343 17.8067 20.3994 17.8818C20.0009 17.9473 19.5976 17.9824 19.2001 17.9873C18.9881 17.9919 18.835 17.9941 18.6806 17.9941H10.8349C10.667 17.9935 10.4965 17.992 10.3271 17.9883C9.92744 17.9832 9.5284 17.9476 9.12885 17.8818C8.7023 17.8082 8.2882 17.6719 7.89838 17.4756C7.50906 17.2769 7.15376 17.0175 6.86225 16.7246C6.8373 16.7013 6.8191 16.6822 6.77045 16.6309C6.64132 16.5047 6.55799 16.4233 6.43256 16.2979C6.33625 16.2032 6.25918 16.1274 6.08881 15.957L3.81146 13.6758C3.73731 13.6074 3.69749 13.5678 3.62982 13.501C3.5475 13.4206 3.50116 13.3752 3.39838 13.2725L1.32318 11.1934C1.2957 11.1649 1.26561 11.1351 1.23139 11.1006C1.20478 11.0737 1.18336 11.0516 1.13373 11.002C1.06201 10.9302 1.00809 10.8753 0.971621 10.8359C0.798051 10.6644 0.63348 10.4832 0.479434 10.2939C0.335261 10.1415 0.218382 9.96507 0.134707 9.77246L0.112246 9.71191C-0.0374329 9.24854 -0.0373979 8.74951 0.112246 8.28613L0.13373 8.22754C0.216831 8.03432 0.33372 7.8574 0.47748 7.7041C0.632217 7.51445 0.795892 7.33276 0.957949 7.17285C1.02856 7.09921 1.07936 7.04765 1.14252 6.98438C1.16552 6.96118 1.16603 6.96096 1.19818 6.92871C1.24698 6.87969 1.28483 6.84079 1.32904 6.79492L3.39936 4.72266C3.42567 4.69647 3.44639 4.67487 3.49213 4.62988C3.54547 4.57741 3.57142 4.55351 3.59955 4.52539C3.6608 4.46451 3.71996 4.40622 3.79096 4.33887C3.8247 4.30612 6.07539 2.05346 6.08686 2.04199C6.22576 1.90227 6.32984 1.7986 6.4267 1.7041C6.52335 1.60711 6.62303 1.50997 6.73139 1.40723C6.81871 1.31401 6.8294 1.30313 6.84369 1.28906C7.15222 0.978843 7.50799 0.71941 7.90033 0.519531C8.28689 0.324637 8.70038 0.188388 9.13373 0.113281C9.52772 0.0491675 9.92615 0.0139384 10.3183 0.00878906C10.5091 0.00426537 10.6756 0.00192078 10.829 0.00195312C10.9984 0.000259488 11.1337 0 11.4326 0H18.1279C18.4288 8.88782e-08 18.5634 0.000290472 18.7255 0.00195312ZM10.8359 1.33496C10.6873 1.33496 10.5308 1.33737 10.3427 1.3418C10.0094 1.3462 9.67664 1.37534 9.35443 1.42773C9.05748 1.47924 8.7695 1.57456 8.50287 1.70898C8.23888 1.84351 7.99752 2.01887 7.78412 2.2334C7.78263 2.2349 7.768 2.25063 7.73822 2.28223C7.67964 2.34438 7.66663 2.35816 7.64545 2.37793C7.54965 2.46879 7.45903 2.55728 7.36518 2.65137C7.26745 2.7468 7.16695 2.84684 7.03119 2.9834L4.73139 5.28613C4.69911 5.31606 4.68745 5.32677 4.67768 5.33496C4.63283 5.37796 4.58641 5.4226 4.53998 5.46875C4.51001 5.49872 4.48317 5.52632 4.43646 5.57227C4.38276 5.62509 4.36322 5.64368 4.34076 5.66602L2.28217 7.72754C2.24055 7.77089 2.19673 7.81469 2.14252 7.86914C2.10847 7.9033 2.10844 7.90341 2.06537 7.94629C2.03128 7.98084 1.98609 8.02745 1.90814 8.1084C1.76257 8.25234 1.62483 8.40434 1.49604 8.56348L1.456 8.60938C1.42182 8.64451 1.393 8.68482 1.37104 8.72852C1.32082 8.90466 1.32014 9.09137 1.37006 9.26758C1.39199 9.3105 1.42112 9.35034 1.45502 9.38477L1.49896 9.43359C1.62711 9.59249 1.76391 9.74473 1.92572 9.90527C1.96801 9.95017 2.01393 9.99641 2.07709 10.0596C2.12718 10.1097 2.15032 10.1326 2.17865 10.1611C2.21678 10.1996 2.25014 10.2345 2.27436 10.2598L4.34174 12.3301C4.43916 12.4275 4.48205 12.4701 4.53705 12.5234C4.61335 12.5988 4.64411 12.6292 4.67963 12.6631C4.68541 12.668 4.73041 12.709 4.73041 12.709L7.03217 15.0146C7.19946 15.1819 7.27418 15.2564 7.37104 15.3516C7.4914 15.4719 7.56637 15.5447 7.64252 15.6162C7.66688 15.6389 7.66364 15.6353 7.73725 15.7129C7.75924 15.7361 7.77646 15.7543 7.789 15.7666C7.99873 15.9769 8.24055 16.1528 8.50189 16.2861C8.771 16.4216 9.05881 16.517 9.35053 16.5674C9.67876 16.6214 10.0107 16.651 10.3496 16.6553C10.5174 16.659 10.6798 16.6605 10.8369 16.6611H18.6806C18.8235 16.6611 18.968 16.6588 19.1777 16.6543C19.5145 16.6502 19.8507 16.621 20.1777 16.5674C20.477 16.5157 20.7671 16.42 21.038 16.2832C21.3056 16.1479 21.5503 15.9704 21.7617 15.7588C21.9741 15.5455 22.1521 15.2998 22.2871 15.0361C22.4239 14.7636 22.5205 14.4721 22.5712 14.1768C22.6256 13.8445 22.6549 13.5086 22.6591 13.1602L22.6669 12.668V5.29004C22.6663 5.23963 22.6665 5.23948 22.666 5.18945C22.6647 5.07278 22.6641 5.02212 22.663 4.95898C22.662 4.90135 22.6608 4.84869 22.6591 4.78711C22.6552 4.45418 22.626 4.12202 22.5732 3.79883C22.5221 3.50167 22.4277 3.21307 22.2949 2.94824C22.1592 2.68306 21.9827 2.44041 21.7714 2.22852C21.5628 2.01844 21.3215 1.8436 21.0576 1.70996C20.7894 1.57433 20.5021 1.47887 20.2128 1.42871C19.8833 1.37516 19.55 1.34631 19.2089 1.3418C19.0308 1.33752 18.8741 1.335 18.7187 1.33496C18.5559 1.33332 18.4243 1.33301 18.1279 1.33301H11.4326C11.1382 1.33301 11.006 1.33329 10.8359 1.33496ZM17.2011 5.44531C17.3721 5.2743 17.63 5.22289 17.8535 5.31543C18.0767 5.40804 18.2226 5.62642 18.2226 5.86816C18.2225 6.02897 18.1568 6.1783 18.0478 6.28809L18.0556 6.2959L15.3583 8.99512L17.9667 11.6016C17.9997 11.6234 18.0301 11.6494 18.0585 11.6777L18.0576 11.6787C18.2286 11.8497 18.28 12.1076 18.1874 12.3311C18.0948 12.5544 17.8765 12.7002 17.6347 12.7002C17.4736 12.7002 17.3237 12.6346 17.2138 12.5254L17.2089 12.5312L14.5146 9.83984L11.8232 12.5352L11.8115 12.5234C11.7574 12.577 11.6941 12.622 11.621 12.6523C11.3976 12.7449 11.1397 12.6944 10.9687 12.5234C10.8562 12.4113 10.7929 12.2585 10.7929 12.0996C10.7929 11.9407 10.8562 11.788 10.9687 11.6758V11.6777C10.9991 11.6474 11.0332 11.6213 11.0683 11.5986L13.6689 8.99512L10.9687 6.29883L10.9785 6.28809C10.9252 6.23418 10.8797 6.17139 10.8496 6.09863C10.757 5.8752 10.8084 5.61729 10.9794 5.44629C11.0916 5.33351 11.2442 5.27059 11.4033 5.27051C11.5625 5.27051 11.7158 5.33335 11.8281 5.44629H11.8251C11.8524 5.47354 11.8754 5.50402 11.8964 5.53516L14.5126 8.14941L17.1415 5.51758C17.1597 5.49264 17.1787 5.46782 17.2011 5.44531ZM3.83588 4.30078C3.83392 4.3023 3.83155 4.30446 3.83002 4.30566C3.83248 4.30363 3.83504 4.3019 3.83783 4.2998L3.83588 4.30078Z" fill="var(--fill-0, white)"/>
</svg>
