<svg preserveAspectRatio="none" width="100%" height="100%" overflow="visible" style="display: block;" viewBox="0 0 21 20" fill="none" xmlns="http://www.w3.org/2000/svg">
<path id="path" d="M11 2V7.09961C10.6769 7.03403 10.3424 7 10 7C7.23858 7 5 9.23858 5 12C5 14.7614 7.23858 17 10 17C12.7614 17 15 14.7614 15 12C15 11.2889 14.8516 10.6125 14.584 10H20V15.8389C20 16.3659 20.0003 16.8208 19.9697 17.1953C19.9374 17.5906 19.8656 17.984 19.6729 18.3623C19.3853 18.9265 18.9265 19.3853 18.3623 19.6729C17.984 19.8656 17.5906 19.9374 17.1953 19.9697C16.8208 20.0003 16.3659 20 15.8389 20H4.16113C3.63412 20 3.17918 20.0003 2.80469 19.9697C2.40943 19.9374 2.01599 19.8656 1.6377 19.6729C1.07347 19.3853 0.614724 18.9265 0.32715 18.3623C0.134398 17.984 0.0625857 17.5906 0.0302748 17.1953C-0.000322035 16.8208 -1.40799e-05 16.3659 1.36406e-06 15.8389V9.16113C-1.40791e-05 8.63416 -0.000321216 8.17916 0.0302748 7.80469C0.0625858 7.40943 0.134398 7.01599 0.32715 6.6377C0.614724 6.07347 1.07347 5.61472 1.6377 5.32715C2.01599 5.1344 2.40943 5.06258 2.80469 5.03027C3.17918 4.99968 3.63413 4.99998 4.16113 5H4.58594L7.58594 2H11ZM10 9C11.6569 9 13 10.3431 13 12C13 13.6569 11.6569 15 10 15C8.34315 15 7 13.6569 7 12C7 10.3431 8.34315 9 10 9ZM18 0V3H21V5H18V8H16V5H13V3H16V0H18Z" fill="var(--fill-0, black)"/>
</svg>
