<svg preserveAspectRatio="none" width="100%" height="100%" overflow="visible" style="display: block;" viewBox="0 0 20 20" fill="none" xmlns="http://www.w3.org/2000/svg">
<path id="path" d="M10.4004 0C13.7603 9.83795e-10 15.4402 0.000417605 16.7236 0.654297C17.8526 1.22954 18.7705 2.14739 19.3457 3.27637C19.9996 4.55977 20 6.23965 20 9.59961V10.4004C20 13.7603 19.9996 15.4402 19.3457 16.7236C18.7705 17.8526 17.8526 18.7705 16.7236 19.3457C15.4402 19.9996 13.7603 20 10.4004 20H9.59961C6.23965 20 4.55977 19.9996 3.27637 19.3457C2.14739 18.7705 1.22954 17.8526 0.654297 16.7236C0.000417605 15.4402 9.83795e-10 13.7603 0 10.4004V9.59961C9.83795e-10 6.23965 0.000417605 4.55977 0.654297 3.27637C1.22954 2.14739 2.14739 1.22954 3.27637 0.654297C4.55977 0.000417605 6.23965 9.83795e-10 9.59961 0H10.4004ZM11 5L7 15H9L13 5H11ZM13.5 9C12.1193 9 11 10.1193 11 11.5V12.5C11 13.8807 12.1193 15 13.5 15C14.8807 15 16 13.8807 16 12.5V11.5C16 10.1193 14.8807 9 13.5 9ZM13.5 10C13.7761 10 14 10.2239 14 10.5V13.5C14 13.7761 13.7761 14 13.5 14C13.2239 14 13 13.7761 13 13.5V10.5C13 10.2239 13.2239 10 13.5 10ZM6.5 5C5.11929 5 4 6.11929 4 7.5V8.5C4 9.88071 5.11929 11 6.5 11C7.88071 11 9 9.88071 9 8.5V7.5C9 6.11929 7.88071 5 6.5 5ZM6.5 6C6.77614 6 7 6.22386 7 6.5V9.5C7 9.77614 6.77614 10 6.5 10C6.22386 10 6 9.77614 6 9.5V6.5C6 6.22386 6.22386 6 6.5 6Z" fill="var(--fill-0, black)"/>
</svg>
