<svg preserveAspectRatio="none" width="100%" height="100%" overflow="visible" style="display: block;" viewBox="0 0 15 15" fill="none" xmlns="http://www.w3.org/2000/svg">
<path id="Union" d="M10.4736 6.43652C10.7585 7.20631 11.365 7.81374 12.1348 8.09863L15 9.1582L12.1348 10.2188C11.3652 10.5036 10.7585 11.1103 10.4736 11.8799L9.41309 14.7451L8.35352 11.8799C8.06862 11.1101 7.46118 10.5036 6.69141 10.2188L3.82617 9.1582L6.69141 8.09863C7.46124 7.81377 8.06865 7.20636 8.35352 6.43652L9.41309 3.57227L10.4736 6.43652ZM4.43164 1.91016C4.62161 2.42321 5.02596 2.82771 5.53906 3.01758L7.44922 3.72461L5.53906 4.43164C5.02589 4.62155 4.62155 5.02589 4.43164 5.53906L3.72461 7.44922L3.01758 5.53906C2.82771 5.02596 2.42321 4.62161 1.91016 4.43164L0 3.72461L1.91016 3.01758C2.42318 2.82766 2.82766 2.42318 3.01758 1.91016L3.72461 0L4.43164 1.91016Z" fill="var(--fill-0, black)"/>
</svg>
