<svg preserveAspectRatio="none" width="100%" height="100%" overflow="visible" style="display: block;" viewBox="0 0 27 27" fill="none" xmlns="http://www.w3.org/2000/svg">
<path id="Emoji" fill-rule="evenodd" clip-rule="evenodd" d="M13.25 0C20.5678 0 26.5 5.93223 26.5 13.25C26.5 20.5678 20.5678 26.5 13.25 26.5C5.93223 26.5 0 20.5678 0 13.25C0 5.93223 5.93223 0 13.25 0ZM9.05836 7.50281C8.64882 7.49793 8.25443 7.65749 7.96348 7.94576C7.67253 8.23403 7.50934 8.62693 7.51043 9.0365C7.51043 9.8914 8.20346 10.5844 9.05836 10.5844C9.91326 10.5844 10.6063 9.8914 10.6063 9.0365C10.6074 8.62693 10.4442 8.23403 10.1532 7.94576C9.8623 7.65749 9.4679 7.49793 9.05836 7.50281ZM22.0801 15.5323C21.3746 19.345 17.6947 22.5283 13.2483 22.5283C8.83742 22.5283 5.17909 19.3914 4.43212 15.6218C4.28074 14.681 5.05123 14.4591 5.777 14.6346C8.20492 15.3366 10.7228 15.6782 13.25 15.6483C15.7715 15.6775 18.2836 15.3371 20.7064 14.6379C21.412 14.4591 22.1676 14.6611 22.0801 15.5323ZM19.6849 16.0623C19.616 16.0888 19.5461 16.1087 19.4755 16.1319C19.4682 16.1352 19.7014 16.059 19.6945 16.0623C17.5994 16.6391 15.4338 16.9189 13.2609 16.8937C10.6679 16.8937 8.34882 16.6056 6.75286 16.0325C5.59581 15.688 5.81774 17.0494 6.63096 17.4668C8.71139 18.4139 10.9749 18.8912 13.2606 18.8647C15.9795 18.8647 18.4023 18.232 20.0025 17.4138C20.7598 16.9269 20.9095 15.6217 19.6849 16.0623V16.0623ZM17.4503 7.50281C17.0407 7.49793 16.6462 7.65748 16.3553 7.94574C16.0643 8.234 15.901 8.6269 15.902 9.0365C15.8938 9.59498 16.1871 10.1146 16.6694 10.3962C17.1518 10.6778 17.7484 10.6778 18.2307 10.3962C18.7131 10.1146 19.0064 9.59498 18.9982 9.0365C18.9992 8.62696 18.836 8.23411 18.545 7.94586C18.2541 7.65761 17.8598 7.49802 17.4503 7.50281V7.50281Z" fill="var(--fill-0, #E7E7E7)"/>
</svg>
