<svg preserveAspectRatio="none" width="100%" height="100%" overflow="visible" style="display: block;" viewBox="0 0 15 25" fill="none" xmlns="http://www.w3.org/2000/svg">
<path id="Dictation" d="M14.167 10.3311C14.6271 10.3312 15 10.7039 15 11.1641C15 11.1854 14.9987 11.2066 14.9971 11.2275V13.2803H14.9863C14.9889 17.1083 12.1282 20.3335 8.32715 20.7871V23.3203H11.4668V23.332C11.4778 23.3316 11.4889 23.3311 11.5 23.3311C11.9602 23.3311 12.333 23.7038 12.333 24.1641C12.333 24.6243 11.9602 24.9971 11.5 24.9971C11.4889 24.9971 11.4778 24.9956 11.4668 24.9951V24.9971H3.53028V24.9951C3.52021 24.9955 3.51016 24.9971 3.50001 24.9971C3.03977 24.9971 2.667 24.6243 2.667 24.1641C2.667 23.7038 3.03977 23.3311 3.50001 23.3311C3.51015 23.3311 3.52022 23.3317 3.53028 23.332V23.3203H6.67676V20.7871C2.86736 20.3444 -0.00463201 17.1153 5.60848e-06 13.2803C5.14709e-05 13.2439 0.00516841 13.2108 0.00586498 13.1777V11.2617C0.00212409 11.2297 5.79351e-06 11.1971 5.60848e-06 11.1641C5.60848e-06 10.7039 0.372928 10.3312 0.833013 10.3311C1.29325 10.3311 1.667 10.7038 1.667 11.1641C1.667 11.1868 1.66487 11.2092 1.66309 11.2314V13.541H1.65821V13.5479C1.65825 13.5777 1.66276 13.6078 1.66309 13.6377V13.9512H1.67872C1.92662 16.9145 4.35136 19.2239 7.32325 19.3271H7.66016C10.6332 19.2258 13.0597 16.9156 13.3066 13.9512H13.3272V11.1738L13.333 11.1729C13.333 11.1699 13.333 11.167 13.333 11.1641C13.333 10.7038 13.7068 10.3311 14.167 10.3311ZM7.49708 0C9.48373 2.99697e-05 11.2271 1.32367 11.7607 3.2373C11.8861 3.67551 11.9644 4.12625 11.9941 4.58105C12.0241 5.08497 11.9941 7.16417 11.9941 7.66406V11.877C11.9941 12.3803 11.9935 12.9107 11.9668 13.4141C11.9463 13.868 11.8767 14.3188 11.7598 14.7578C11.4988 15.6792 10.9428 16.4898 10.1768 17.0645C8.60524 18.3043 6.3879 18.3043 4.81641 17.0645C4.04832 16.4916 3.49132 15.6804 3.23243 14.7578C3.11498 14.3189 3.04607 13.868 3.02637 13.4141C2.99737 12.9107 3.00001 12.3803 3.00001 11.877V4.58105C3.01318 4.12443 3.09182 3.67163 3.2334 3.2373C3.76708 1.32367 5.51041 0 7.49708 0Z" fill="var(--fill-0, #E7E7E7)"/>
</svg>
