<svg preserveAspectRatio="none" width="100%" height="100%" overflow="visible" style="display: block;" viewBox="0 0 18 18" fill="none" xmlns="http://www.w3.org/2000/svg">
<path id="path" d="M18 7V0L15.364 2.63603C14.2614 1.53345 12.8836 0.72894 11.3599 0.314923C9.27932 -0.250429 7.06487 -0.050068 5.11951 0.879552C3.17416 1.80917 1.62717 3.40627 0.760012 5.38027C-0.107143 7.35426 -0.236835 9.57397 0.394534 11.6355C1.0259 13.6971 2.37637 15.4635 4.20023 16.6133C6.02409 17.7631 8.20014 18.22 10.3324 17.9008C12.4647 17.5816 14.4116 16.5076 15.8188 14.874C17.007 13.4947 17.7438 11.7939 17.9443 10H15.9282C15.7387 11.3132 15.1785 12.553 14.3035 13.5687C13.209 14.8392 11.6948 15.6746 10.0363 15.9229C8.37788 16.1711 6.68541 15.8158 5.26685 14.9215C3.84829 14.0271 2.79792 12.6533 2.30686 11.0498C1.8158 9.44642 1.91667 7.71998 2.59112 6.18465C3.26557 4.64932 4.46879 3.40714 5.98185 2.6841C7.4949 1.96106 9.21725 1.80522 10.8355 2.24494C12.0206 2.56695 13.0922 3.19268 13.9498 4.05024L11 7H18Z" fill="var(--fill-0, black)"/>
</svg>
