<svg preserveAspectRatio="none" width="100%" height="100%" overflow="visible" style="display: block;" viewBox="0 0 16 21" fill="none" xmlns="http://www.w3.org/2000/svg">
<path id="path" d="M8.99985 20.0171L7.00019 20.0193C6.99784 19.9191 6.99515 19.819 6.99205 19.7188C6.98601 19.5237 6.97612 19.2434 6.96078 18.9045C6.93003 18.2255 6.87764 17.3175 6.79118 16.3931C6.72321 15.6664 6.37719 14.7732 5.63075 14.0656C4.90106 13.3738 3.72375 12.7982 1.875 12.7982H1.23145L0.964848 12.2125C0.194997 10.5212 0 9.40035 0 7.84C0 3.76673 3.2499 0 8 0C12.7501 0 16 3.76673 16 7.84C16 9.40035 15.805 10.5212 15.0352 12.2125L14.7685 12.7982H14.125C12.2762 12.7982 11.0973 13.3739 10.3661 14.0661C9.61814 14.7741 9.27135 15.6673 9.20346 16.3931C9.11709 17.3167 9.06604 18.2239 9.03663 18.9026C9.02196 19.2412 9.01273 19.5214 9.00719 19.7163C9.00434 19.8166 9.00192 19.9168 8.99985 20.0171Z" fill="var(--fill-0, black)"/>
</svg>
