<svg preserveAspectRatio="none" width="100%" height="100%" overflow="visible" style="display: block;" viewBox="0 0 18 19" fill="none" xmlns="http://www.w3.org/2000/svg">
<path id="path" d="M15 0C16.6569 0 18 1.34315 18 3V13C18 14.6569 16.6569 16 15 16H5.98145C5.82325 16 5.66723 16.0374 5.52637 16.1094L1.45508 18.1904L0 18.9346V3C4.165e-07 1.34315 1.34315 0 3 0H15ZM3 2C2.44772 2 2 2.44772 2 3V15.665L4.61621 14.3291C5.03889 14.1131 5.50675 14 5.98145 14H15C15.5523 14 16 13.5523 16 13V3C16 2.44772 15.5523 2 15 2H3ZM11 11H5V9H11V11ZM13 7H5V5H13V7Z" fill="var(--fill-0, black)"/>
</svg>
