<svg preserveAspectRatio="none" width="100%" height="100%" overflow="visible" style="display: block;" viewBox="0 0 22 19" fill="none" xmlns="http://www.w3.org/2000/svg">
<path id="path" fill-rule="evenodd" clip-rule="evenodd" d="M0 8.62938V6.62938L9.92625 0.312677C10.5814 -0.104226 11.4186 -0.104226 12.0738 0.312677L22 6.62938V8.62938C22 9.18167 21.5523 9.62938 21 9.62938H19V15.6294C19 17.2862 17.6569 18.6294 16 18.6294H6C4.34315 18.6294 3 17.2862 3 15.6294V9.62938H1C0.447715 9.62938 0 9.18167 0 8.62938ZM11 2L2.15383 7.62938H19.8462L11 2ZM5 9.62938V15.6294C5 16.1817 5.44772 16.6294 6 16.6294H7V14.6286C7 12.9713 8.34363 11.6294 10 11.6294H12C13.6569 11.6294 15 12.9725 15 14.6294V16.6294H16C16.5523 16.6294 17 16.1817 17 15.6294V9.62938H5ZM13 14.6294V16.6294H9V14.6286C9 14.0768 9.44723 13.6294 10 13.6294H12C12.5523 13.6294 13 14.0771 13 14.6294Z" fill="var(--fill-0, black)"/>
</svg>
