<svg preserveAspectRatio="none" width="100%" height="100%" overflow="visible" style="display: block;" viewBox="0 0 18 20" fill="none" xmlns="http://www.w3.org/2000/svg">
<path id="path" d="M14.7695 0.00901426C16.5119 -0.125015 18 1.25269 18 3.00023V16.6799C17.9999 18.4274 16.5118 19.8051 14.7695 19.6711L5.76953 18.9787C4.2068 18.8583 3.00009 17.5549 3 15.9875V13.8401H5V15.9875C5.00009 16.5098 5.40215 16.9443 5.92285 16.9846L14.9229 17.677C15.5036 17.7216 15.9999 17.2623 16 16.6799V3.00023C16 2.41772 15.5036 1.95848 14.9229 2.00315L5.92285 2.69554C5.4021 2.73585 5 3.17024 5 3.69261V5.84007H3V3.69261C3 2.12514 4.20675 0.82183 5.76953 0.701397L14.7695 0.00901426ZM13.4141 9.84007L9.20703 14.0471L7.79297 12.633L9.58594 10.8401H0V8.84007H9.58594L7.79297 7.0471L9.20703 5.63304L13.4141 9.84007Z" fill="var(--fill-0, black)"/>
</svg>
