<svg preserveAspectRatio="none" width="100%" height="100%" overflow="visible" style="display: block;" viewBox="0 0 19 17" fill="none" xmlns="http://www.w3.org/2000/svg">
<path id="path" fill-rule="evenodd" clip-rule="evenodd" d="M1.83085 2H0V0H1.83085C3.28071 0 4.5231 1.03687 4.78246 2.46334L4.88003 3H19L18 10.0484L7.84938 12.4115C6.15724 12.8603 4.44193 11.7708 4.12877 10.0484L2.81472 2.82111C2.72826 2.34562 2.31413 2 1.83085 2ZM7 15.5C7 16.3284 6.32843 17 5.5 17C4.67157 17 4 16.3284 4 15.5C4 14.6716 4.67157 14 5.5 14C6.32843 14 7 14.6716 7 15.5ZM14.5 17C15.3284 17 16 16.3284 16 15.5C16 14.6716 15.3284 14 14.5 14C13.6716 14 13 14.6716 13 15.5C13 16.3284 13.6716 17 14.5 17Z" fill="var(--fill-0, black)"/>
</svg>
