<svg preserveAspectRatio="none" width="100%" height="100%" overflow="visible" style="display: block;" viewBox="0 0 18 18" fill="none" xmlns="http://www.w3.org/2000/svg">
<path id="path" d="M11.5996 1.63272e-09C13.8398 1.63272e-09 14.9608 -0.000427061 15.8164 0.435547C16.5689 0.819016 17.181 1.43109 17.5645 2.18359C18.0004 3.03924 18 4.16018 18 6.40039V11.5996C18 13.8398 18.0004 14.9608 17.5645 15.8164C17.181 16.5689 16.5689 17.181 15.8164 17.5645C14.9608 18.0004 13.8398 18 11.5996 18H6.40039C4.16018 18 3.03924 18.0004 2.18359 17.5645C1.43109 17.181 0.819016 16.5689 0.435547 15.8164C-0.000427061 14.9608 1.63272e-09 13.8398 1.63272e-09 11.5996V6.40039C1.63272e-09 4.16018 -0.000427061 3.03924 0.435547 2.18359C0.819016 1.43109 1.43109 0.819016 2.18359 0.435547C3.03924 -0.000427061 4.16018 1.63272e-09 6.40039 1.63272e-09H11.5996ZM6 4V14H8V11H9.5C11.433 11 13 9.433 13 7.5C13 5.567 11.433 4 9.5 4H6ZM9.5 6C10.3284 6 11 6.67157 11 7.5C11 8.32843 10.3284 9 9.5 9H8V6H9.5Z" fill="var(--fill-0, black)"/>
</svg>
