<svg preserveAspectRatio="none" width="100%" height="100%" overflow="visible" style="display: block;" viewBox="0 0 32 32" fill="none" xmlns="http://www.w3.org/2000/svg">
<g id="gas station">
<path id="gas station_2" d="M15 2C17.2093 2 19 3.79072 19 6V28H21V30H1V28H3V6C3 3.79072 4.79072 2 7 2H15ZM5 28H17V14H5V28ZM31 8.76367V24C31 26.2093 29.2093 28 27 28C24.7907 28 23 26.2093 23 24V18C23 16.8953 22.1047 16 21 16V14C23.2093 14 25 15.7907 25 18V24C25 25.1047 25.8953 26 27 26C28.1047 26 29 25.1047 29 24V10.6182L27.5527 11.3418C27.2138 11.5115 27 11.8583 27 12.2363V14H25V12.2363C25 11.1005 25.6424 10.0611 26.6592 9.55273L28.6582 8.55273L26.1055 3.44727L27.8945 2.55273L31 8.76367ZM7 4C5.89528 4 5 4.89528 5 6V12H10.2793L12.0518 6.68359L13.9482 7.31641L12.3867 12H17V6C17 4.89528 16.1047 4 15 4H7Z" fill="var(--fill-0, #1BA136)"/>
</g>
</svg>
