<svg preserveAspectRatio="none" width="100%" height="100%" overflow="visible" style="display: block;" viewBox="0 0 19 19" fill="none" xmlns="http://www.w3.org/2000/svg">
<path id="path" fill-rule="evenodd" clip-rule="evenodd" d="M2 7.5C2 4.46243 4.46243 2 7.5 2C10.5376 2 13 4.46243 13 7.5C13 10.5376 10.5376 13 7.5 13C4.46243 13 2 10.5376 2 7.5ZM7.5 0C3.35786 0 0 3.35786 0 7.5C0 11.6421 3.35786 15 7.5 15C9.21054 15 10.7873 14.4274 12.0491 13.4633L17.2929 18.7071L18.7071 17.2929L13.4633 12.0491C14.4274 10.7873 15 9.21054 15 7.5C15 3.35786 11.6421 0 7.5 0Z" fill="var(--fill-0, black)"/>
</svg>
