<svg preserveAspectRatio="none" width="100%" height="100%" overflow="visible" style="display: block;" viewBox="0 0 13 14" fill="none" xmlns="http://www.w3.org/2000/svg">
<path id="Shape" fill-rule="evenodd" clip-rule="evenodd" d="M13 2V6C13 6.51284 12.614 6.93551 12.1166 6.99327L12 7H7V9H8V12C8 13.1046 7.10457 14 6 14C4.89543 14 4 13.1046 4 12V9H5V8C5 6.94564 5.81588 6.08183 6.85074 6.00549L7 6H12V2H13ZM10 0C10.5523 0 11 0.447715 11 1V4C11 4.55228 10.5523 5 10 5H1C0.447715 5 0 4.55228 0 4V1C0 0.447715 0.447715 0 1 0H10Z" fill="var(--fill-0, #787878)"/>
</svg>
