<svg preserveAspectRatio="none" width="100%" height="100%" overflow="visible" style="display: block;" viewBox="0 0 16 16" fill="none" xmlns="http://www.w3.org/2000/svg">
<g id="path">
<path d="M7.1958 0.184227C7.54226 -0.0614092 8.00608 -0.061409 8.35254 0.184227L9.2732 0.836963C9.46828 0.975274 9.70647 1.0391 9.94457 1.01686L11.0683 0.9119C11.4911 0.872403 11.8928 1.10432 12.07 1.49027L12.541 2.51589C12.6408 2.73321 12.8151 2.90758 13.0324 3.00737L14.0581 3.47831C14.444 3.65554 14.6759 4.05722 14.6364 4.48008L14.5315 5.60377C14.5092 5.84187 14.5731 6.08005 14.7114 6.27514L15.3641 7.1958C15.6097 7.54226 15.6097 8.00608 15.3641 8.35254L14.7114 9.2732C14.5731 9.46828 14.5092 9.70647 14.5315 9.94457L14.6364 11.0683C14.6759 11.4911 14.444 11.8928 14.0581 12.07L13.0324 12.541C12.8151 12.6408 12.6408 12.8151 12.541 13.0324L12.07 14.0581C11.8928 14.444 11.4911 14.6759 11.0683 14.6364L9.94457 14.5315C9.70647 14.5092 9.46828 14.5731 9.2732 14.7114L8.35254 15.3641C8.00608 15.6097 7.54226 15.6097 7.1958 15.3641L6.27514 14.7114C6.08005 14.5731 5.84187 14.5092 5.60376 14.5315L4.48008 14.6364C4.05722 14.6759 3.65554 14.444 3.47831 14.0581L3.00737 13.0324C2.90758 12.8151 2.73321 12.6408 2.51589 12.541L1.49027 12.07C1.10431 11.8928 0.872404 11.4911 0.9119 11.0683L1.01686 9.94457C1.0391 9.70647 0.975274 9.46828 0.836963 9.2732L0.184227 8.35254C-0.0614093 8.00608 -0.061409 7.54226 0.184227 7.1958L0.836963 6.27514C0.975274 6.08005 1.0391 5.84187 1.01686 5.60377L0.9119 4.48008C0.872403 4.05722 1.10432 3.65554 1.49027 3.47831L2.51589 3.00737C2.73321 2.90758 2.90758 2.73321 3.00737 2.51589L3.47831 1.49027C3.65554 1.10431 4.05722 0.872403 4.48008 0.9119L5.60377 1.01686C5.84187 1.0391 6.08005 0.975274 6.27514 0.836963L7.1958 0.184227Z" fill="var(--fill-0, black)"/>
</g>
</svg>
