<svg preserveAspectRatio="none" width="100%" height="100%" overflow="visible" style="display: block;" viewBox="0 0 16 16" fill="none" xmlns="http://www.w3.org/2000/svg">
<path id="path" d="M7.19531 0.183594C7.54177 -0.0620118 8.00609 -0.0620324 8.35254 0.183594L9.27246 0.836914C9.46754 0.975225 9.70623 1.03884 9.94434 1.0166L11.0684 0.911133C11.491 0.871858 11.8922 1.10442 12.0693 1.49023L12.541 2.51563C12.6408 2.73285 12.815 2.90708 13.0322 3.00684L14.0576 3.47754C14.4435 3.65473 14.6751 4.05671 14.6357 4.47949L14.5313 5.60352C14.509 5.84147 14.5728 6.07941 14.7109 6.27441L15.3633 7.19531C15.6089 7.54177 15.6089 8.00608 15.3633 8.35254L14.7109 9.27246C14.5726 9.46754 14.509 9.70623 14.5313 9.94434L14.6357 11.0684C14.675 11.4911 14.4434 11.8922 14.0576 12.0693L13.0322 12.541C12.8149 12.6408 12.6408 12.8149 12.541 13.0322L12.0693 14.0576C11.8922 14.4434 11.4911 14.675 11.0684 14.6357L9.94434 14.5313C9.70623 14.509 9.46754 14.5726 9.27246 14.7109L8.35254 15.3633C8.00608 15.6089 7.54177 15.6089 7.19531 15.3633L6.27441 14.7109C6.07941 14.5728 5.84147 14.509 5.60352 14.5313L4.47949 14.6357C4.05671 14.6751 3.65473 14.4435 3.47754 14.0576L3.00684 13.0322C2.90708 12.815 2.73285 12.6408 2.51563 12.541L1.49023 12.0693C1.10442 11.8922 0.871858 11.491 0.911133 11.0684L1.0166 9.94434C1.03884 9.70623 0.975225 9.46754 0.836914 9.27246L0.183594 8.35254C-0.0620324 8.00609 -0.0620115 7.54177 0.183594 7.19531L0.836914 6.27441C0.975013 6.07943 1.0388 5.84142 1.0166 5.60352L0.911133 4.47949C0.871767 4.05673 1.10436 3.65472 1.49023 3.47754L2.51563 3.00684C2.73284 2.90706 2.90706 2.73284 3.00684 2.51563L3.47754 1.49023C3.65472 1.10436 4.05673 0.871767 4.47949 0.911133L5.60352 1.0166C5.84142 1.0388 6.07943 0.975013 6.27441 0.836914L7.19531 0.183594ZM5.77344 5.77344L3.77344 4.77344L4.77344 10.7734H10.7734L11.7734 4.77344L9.77344 5.77344L7.77344 3.77344L5.77344 5.77344Z" fill="var(--fill-0, black)"/>
</svg>
