<svg preserveAspectRatio="none" width="100%" height="100%" overflow="visible" style="display: block;" viewBox="0 0 13 10" fill="none" xmlns="http://www.w3.org/2000/svg">
<path id="Shape" fill-rule="evenodd" clip-rule="evenodd" d="M2.92865 0.5C2.92865 0.5 4.35722 0 6.50008 0C8.64294 0 10.0715 0.5 10.0715 0.5L11.5 4H13V4.97445C13 5.30348 12.8381 5.61146 12.5671 5.79806L12.2144 6.04099V9C12.2144 9.55229 11.7667 10 11.2144 10H10L9.5 9H3.5L3 10H2C1.44772 10 1 9.55229 1 9V6L0.552786 5.77639C0.214002 5.607 0 5.26074 0 4.88197V4H1.5L2.92865 0.5ZM3.25 7C3.66421 7 4 6.66421 4 6.25C4 5.83579 3.66421 5.5 3.25 5.5C2.83579 5.5 2.5 5.83579 2.5 6.25C2.5 6.66421 2.83579 7 3.25 7ZM10.5 6.25C10.5 6.66421 10.1642 7 9.75 7C9.33579 7 9 6.66421 9 6.25C9 5.83579 9.33579 5.5 9.75 5.5C10.1642 5.5 10.5 5.83579 10.5 6.25ZM9.99993 4.50002H2.99993L3.50011 2.00002C3.50011 2.00002 4.50018 1.50002 6.50006 1.50002C8.49993 1.50002 9.50011 2.00002 9.50011 2.00002L9.99993 4.50002Z" fill="var(--fill-0, black)"/>
</svg>
