<svg preserveAspectRatio="none" width="100%" height="100%" overflow="visible" style="display: block;" viewBox="0 0 12 15" fill="none" xmlns="http://www.w3.org/2000/svg">
<path id="path" d="M6.74989 14.9984L5.25014 15C5.22884 14.0932 5.17793 13.186 5.09339 12.283C5.04241 11.7384 4.7829 11.0692 4.22306 10.539C3.67579 10.0207 2.79281 9.58941 1.40625 9.58941H0.923589L0.723636 9.15054C0.146248 7.88325 0 7.04345 0 5.87432C0 2.82232 2.43743 0 6 0C9.56257 0 12 2.82232 12 5.87432C12 7.04345 11.8538 7.88325 11.2764 9.15054L11.0764 9.58941H10.5938C9.20716 9.58941 8.32294 10.0207 7.77454 10.5394C7.2136 11.0699 6.95351 11.7391 6.9026 12.283C6.81812 13.1854 6.76859 14.0922 6.74989 14.9984Z" fill="var(--fill-0, black)"/>
</svg>
