<svg preserveAspectRatio="none" width="100%" height="100%" overflow="visible" style="display: block;" viewBox="0 0 16 16" fill="none" xmlns="http://www.w3.org/2000/svg">
<path id="path" d="M7.19567 0.183952C7.54207 -0.0615681 8.00551 -0.0615495 8.35192 0.183952L9.27282 0.836296C9.4679 0.974607 9.70659 1.0392 9.94469 1.01696L11.0677 0.911491C11.4905 0.872003 11.8924 1.10381 12.0697 1.48962L12.5404 2.51598C12.6402 2.73318 12.8154 2.90745 13.0326 3.00719L14.058 3.4779C14.4438 3.65517 14.6756 4.05706 14.6361 4.47985L14.5316 5.60387C14.5095 5.84184 14.5731 6.0798 14.7113 6.27477L15.3636 7.19567C15.6092 7.54208 15.6092 8.0055 15.3636 8.35192L14.7113 9.27282C14.573 9.4679 14.5094 9.70659 14.5316 9.94469L14.6361 11.0677C14.6756 11.4905 14.4438 11.8924 14.058 12.0697L13.0326 12.5404C12.8153 12.6402 12.6402 12.8153 12.5404 13.0326L12.0697 14.058C11.8924 14.4438 11.4905 14.6756 11.0677 14.6361L9.94469 14.5316C9.70659 14.5094 9.4679 14.573 9.27282 14.7113L8.35192 15.3636C8.0055 15.6092 7.54208 15.6092 7.19567 15.3636L6.27477 14.7113C6.0798 14.5731 5.84184 14.5095 5.60387 14.5316L4.47985 14.6361C4.05706 14.6756 3.65517 14.4438 3.4779 14.058L3.00719 13.0326C2.90745 12.8154 2.73318 12.6402 2.51598 12.5404L1.48962 12.0697C1.10381 11.8924 0.872003 11.4905 0.911491 11.0677L1.01696 9.94469C1.0392 9.70659 0.974607 9.4679 0.836296 9.27282L0.183952 8.35192C-0.0615496 8.00551 -0.0615679 7.54207 0.183952 7.19567L0.836296 6.27477C0.974512 6.07982 1.03907 5.84181 1.01696 5.60387L0.911491 4.47985C0.872002 4.05707 1.1038 3.65518 1.48962 3.4779L2.51598 3.00719C2.73307 2.90743 2.90743 2.73307 3.00719 2.51598L3.4779 1.48962C3.65518 1.1038 4.05707 0.872002 4.47985 0.911491L5.60387 1.01696C5.84181 1.03907 6.07982 0.974512 6.27477 0.836296L7.19567 0.183952ZM5.7738 5.7738L3.7738 4.7738L4.7738 10.7738H10.7738L11.7738 4.7738L9.7738 5.7738L7.7738 3.7738L5.7738 5.7738Z" fill="var(--fill-0, black)"/>
</svg>
