<svg preserveAspectRatio="none" width="100%" height="100%" overflow="visible" style="display: block;" viewBox="0 0 17 22" fill="none" xmlns="http://www.w3.org/2000/svg">
<path id="Subtract" d="M9.47143 22H7.52857C7.28794 20.3448 7.28396 17.9769 6.07143 16.7578C5.89834 16.5838 5.00001 15.5833 3.03571 15.5833H1.82143L1.21429 14.1797C0.39632 12.2738 0 10.7817 0 9.02344C0 4.43352 3.45302 0 8.5 0C13.547 0 17 4.43352 17 9.02344C17 10.7817 16.6037 12.2738 15.7857 14.1797L15.1786 15.5833H13.9643C11.9999 15.5833 10.9286 16.7578 10.9286 16.7578C9.82573 17.865 9.47143 20.4303 9.47143 22Z" fill="url(#paint0_linear_387_240624)"/>
<defs>
<linearGradient id="paint0_linear_387_240624" x1="10.3918" y1="-1.82266" x2="10.1567" y2="23.8263" gradientUnits="userSpaceOnUse">
<stop stop-color="#FFE9B6"/>
<stop offset="0.0843215" stop-color="#FFC94C"/>
<stop offset="0.904055" stop-color="#EFA701"/>
<stop offset="1" stop-color="#FFE9B6"/>
</linearGradient>
</defs>
</svg>
