<svg preserveAspectRatio="none" width="100%" height="100%" overflow="visible" style="display: block;" viewBox="0 0 17 16" fill="none" xmlns="http://www.w3.org/2000/svg">
<path id="path" fill-rule="evenodd" clip-rule="evenodd" d="M1.5 1V4.5L0 5L0.425902 7.98131C0.472309 8.30616 0.675136 8.58757 0.968638 8.73432L1.5 9V15C1.5 15.5523 1.94772 16 2.5 16H4.5L5 15H12L12.5 16H14.5C15.0523 16 15.5 15.5523 15.5 15V9L16.0314 8.73432C16.3249 8.58757 16.5277 8.30616 16.5741 7.98131L17 5L15.5 4.5V1C15.5 1 13 0 8.5 0C4 0 1.5 1 1.5 1ZM5.5 12C5.5 12.5523 5.05228 13 4.5 13C3.94772 13 3.5 12.5523 3.5 12C3.5 11.4477 3.94772 11 4.5 11C5.05228 11 5.5 11.4477 5.5 12ZM12.5 13C13.0523 13 13.5 12.5523 13.5 12C13.5 11.4477 13.0523 11 12.5 11C11.9477 11 11.5 11.4477 11.5 12C11.5 12.5523 11.9477 13 12.5 13ZM2.5 3.5C2.5 3.5 4.5 3 8.5 3C12.5 3 14.5 3.5 14.5 3.5L14 8.5C14 8.5 12 9 8.5 9C5 9 3 8.5 3 8.5L2.5 3.5ZM11 2L10.5 1H6.5L6 2H11Z" fill="var(--fill-0, black)"/>
</svg>
