<svg preserveAspectRatio="none" width="100%" height="100%" overflow="visible" style="display: block;" viewBox="0 0 20 20" fill="none" xmlns="http://www.w3.org/2000/svg">
<path id="Subtract" d="M10 0C10.3375 0 10.6711 0.0171461 11 0.0498047V2.06348C10.6723 2.02261 10.3387 2 10 2C5.58172 2 2 5.58172 2 10C2 12.1276 2.8319 14.0601 4.18652 15.4932C5.22481 13.4227 7.41717 12.0001 9.94531 12C12.5037 12 14.718 13.4569 15.7412 15.5674C17.1381 14.1271 18 12.1649 18 10C18 9.66123 17.9764 9.3277 17.9355 9H19.9502C19.9829 9.32892 20 9.66249 20 10C20 15.5228 15.5228 20 10 20C7.67693 20 5.54044 19.2059 3.84277 17.877C3.75086 17.808 3.65976 17.738 3.57031 17.666C3.57053 17.6635 3.57009 17.6607 3.57031 17.6582C1.38771 15.8238 0 13.0742 0 10C0 4.47715 4.47715 0 10 0ZM9.94531 14C8.02234 14.0001 6.39642 15.1754 5.79492 16.8057C7.01687 17.5623 8.45714 18 10 18C11.5049 18 12.9119 17.583 14.1143 16.8604C13.529 15.2019 11.8896 14 9.94531 14ZM10 5C11.6567 5 13 6.34325 13 8C13 9.65675 11.6567 11 10 11C8.34327 11 7 9.65674 7 8C7 6.34326 8.34327 5.00002 10 5ZM10 7C9.52214 7.00002 9 7.40611 9 8C9 8.59389 9.52214 8.99998 10 9C10.4779 9 11 8.5939 11 8C11 7.4061 10.4779 7 10 7Z" fill="var(--fill-0, black)"/>
</svg>
