<svg preserveAspectRatio="none" width="100%" height="100%" overflow="visible" style="display: block;" viewBox="0 0 18 14" fill="none" xmlns="http://www.w3.org/2000/svg">
<path id="path" fill-rule="evenodd" clip-rule="evenodd" d="M4 0.5C4 0.5 6 0 9 0C12 0 14 0.5 14 0.5L16 5L18 5.5V6.88197C18 7.26074 17.786 7.607 17.4472 7.77639L17 8V13C17 13.5523 16.5523 14 16 14H14L13.5 13H4.5L4 14H2C1.44772 14 1 13.5523 1 13V8L0.552786 7.77639C0.214002 7.607 0 7.26074 0 6.88197V5.5L2 5L4 0.5ZM4 10C4.55228 10 5 9.55229 5 9C5 8.44771 4.55228 8 4 8C3.44772 8 3 8.44771 3 9C3 9.55229 3.44772 10 4 10ZM15 9C15 9.55229 14.5523 10 14 10C13.4477 10 13 9.55229 13 9C13 8.44771 13.4477 8 14 8C14.5523 8 15 8.44771 15 9ZM14.5 6H3.5L4 2.5C4 2.5 6.00014 2 9.00007 2C12 2 14 2.5 14 2.5L14.5 6Z" fill="var(--fill-0, black)"/>
</svg>
