<svg preserveAspectRatio="none" width="100%" height="100%" overflow="visible" style="display: block;" viewBox="0 0 20 20" fill="none" xmlns="http://www.w3.org/2000/svg">
<g id="path">
<path d="M13.213 14.74C13.671 14.699 14.69 14.137 14.898 13.554C15.106 12.971 15.106 12.471 15.044 12.368C14.9942 12.2844 14.8771 12.2279 14.7033 12.1441C14.6609 12.1236 14.6151 12.1015 14.566 12.077C14.317 11.952 13.09 11.348 12.861 11.265C12.632 11.182 12.465 11.14 12.299 11.39C12.133 11.64 11.655 12.202 11.509 12.368C11.363 12.535 11.218 12.556 10.968 12.431C10.9266 12.4101 10.8699 12.3854 10.7998 12.3549C10.4475 12.2016 9.75678 11.901 8.96104 11.192C8.21904 10.531 7.71904 9.714 7.57304 9.464C7.42803 9.215 7.55803 9.079 7.68303 8.955C7.75755 8.88048 7.84314 8.7763 7.9289 8.67192C7.97203 8.61941 8.0152 8.56686 8.05704 8.518C8.16281 8.39346 8.20891 8.29949 8.2717 8.17152C8.28252 8.14947 8.29383 8.1264 8.30604 8.102C8.38904 7.936 8.34704 7.79 8.28504 7.665C8.25902 7.61254 8.15851 7.36479 8.0342 7.05838C7.86229 6.63463 7.64487 6.09869 7.51604 5.812C7.32903 5.397 7.13204 5.388 6.95404 5.381C6.80904 5.375 6.64204 5.375 6.47604 5.375C6.30904 5.375 6.03903 5.437 5.81004 5.687C5.79571 5.70257 5.77976 5.71954 5.76244 5.73796C5.50287 6.014 4.93604 6.61681 4.93604 7.768C4.93604 8.98804 5.81849 10.1666 5.95251 10.3456L5.95504 10.349C5.9643 10.3614 5.98182 10.3874 6.00737 10.4253C6.32368 10.8948 7.87062 13.1907 10.218 14.116C12.1243 14.8675 12.6575 14.8045 13.0808 14.7545C13.1256 14.7492 13.1692 14.744 13.213 14.74Z" fill="var(--fill-0, #262626)"/>
<path fill-rule="evenodd" clip-rule="evenodd" d="M10.011 0C12.683 0.000999928 15.191 1.041 17.077 2.928C18.963 4.816 20.001 7.325 19.999 9.994C19.996 15.499 15.515 19.979 10.01 19.979H10.006C8.334 19.978 6.692 19.559 5.233 18.763L0 20L1.355 14.977C0.481 13.463 0.0210001 11.745 0.0220001 9.985C0.0240002 4.479 4.505 0 10.011 0ZM6.191 17.007C7.354 17.642 8.674 17.978 10.007 17.979C14.413 17.979 17.997 14.396 17.999 9.992C18.001 7.858 17.171 5.851 15.662 4.341C14.153 2.833 12.146 2.001 10.01 2C5.607 2 2.024 5.583 2.022 9.985C2.021 11.388 2.389 12.768 3.087 13.976L3.502 14.695L2.805 17.281L5.518 16.64L6.191 17.007Z" fill="var(--fill-0, #262626)"/>
</g>
</svg>
