<svg preserveAspectRatio="none" width="100%" height="100%" overflow="visible" style="display: block;" viewBox="0 0 12 12" fill="none" xmlns="http://www.w3.org/2000/svg">
<path id="path" d="M4.28613 1.71387H2.15332L2.07324 1.7207C1.86651 1.75694 1.71409 1.93165 1.71387 2.14453V9.85449L1.72168 9.93066C1.75882 10.1292 1.93671 10.286 2.13672 10.2861H9.86328L9.9375 10.2783C10.1315 10.2414 10.286 10.0644 10.2861 9.86328V7.71387H12V9.86328L11.9951 10.0029C11.9223 11.1094 10.9931 11.9999 9.86328 12H2.13672L1.99707 11.9951C0.889437 11.922 0 10.9875 0 9.85449V2.14453L0.00488281 2.00293C0.0779828 0.879643 1.01159 0.000165991 2.15332 0H4.28613V1.71387ZM12 6H10.2861V2.92578L4.8916 8.32031L3.67969 7.1084L9.07422 1.71387H6V0H12V6Z" fill="var(--fill-0, black)"/>
</svg>
