<svg preserveAspectRatio="none" width="100%" height="100%" overflow="visible" style="display: block;" viewBox="0 0 18 20" fill="none" xmlns="http://www.w3.org/2000/svg">
<path id="path" d="M5 9.41406H3C2.44777 9.41406 2.00008 9.86185 2 10.4141V16.4141C2 16.9663 2.44772 17.4141 3 17.4141H15C15.5523 17.4141 16 16.9663 16 16.4141V10.4141C15.9999 9.86185 15.5522 9.41406 15 9.41406H13V7.41406H15C16.6568 7.41406 17.9999 8.75728 18 10.4141V16.4141C18 18.0709 16.6569 19.4141 15 19.4141H3C1.34315 19.4141 1.61064e-08 18.0709 0 16.4141V10.4141C8.14309e-05 8.75728 1.3432 7.41406 3 7.41406H5V9.41406ZM13.207 4.20703L11.793 5.62109L10 3.82812V13.4141H8V3.82812L6.20703 5.62109L4.79297 4.20703L9 0L13.207 4.20703Z" fill="var(--fill-0, black)"/>
</svg>
