<svg preserveAspectRatio="none" width="100%" height="100%" overflow="visible" style="display: block;" viewBox="0 0 18 20" fill="none" xmlns="http://www.w3.org/2000/svg">
<path id="path" d="M14.7695 0.00878906C16.5119 -0.12524 18 1.25247 18 3V16.6797C17.9999 18.4271 16.5118 19.8049 14.7695 19.6709L5.76953 18.9785C4.2068 18.8581 3.00009 17.5547 3 15.9873V13.8398H5V15.9873C5.00009 16.5096 5.40215 16.9441 5.92285 16.9844L14.9229 17.6768C15.5036 17.7214 15.9999 17.2621 16 16.6797V3C16 2.41749 15.5036 1.95825 14.9229 2.00293L5.92285 2.69531C5.4021 2.73563 5 3.17001 5 3.69238V5.83984H3V3.69238C3 2.12491 4.20675 0.821605 5.76953 0.701172L14.7695 0.00878906ZM13.4141 9.83984L9.20703 14.0469L7.79297 12.6328L9.58594 10.8398H0V8.83984H9.58594L7.79297 7.04688L9.20703 5.63281L13.4141 9.83984Z" fill="var(--fill-0, black)"/>
</svg>
