<svg preserveAspectRatio="none" width="100%" height="100%" overflow="visible" style="display: block;" viewBox="0 0 12 14" fill="none" xmlns="http://www.w3.org/2000/svg">
<path id="Subtract" d="M5.8486 13.7391H3.84125C3.67212 12.6328 3.66933 11.969 2.81711 11.1542C2.69546 11.0378 2.98317 10.2925 1.6026 10.2925H0.749149L0.322427 9.43087C-0.252471 8.15691 0.116688 5.74801 0.116688 4.57273C0.116688 1.50467 0.937956 0 4.48516 0C9.11433 0 11.4172 2.91621 11.4172 5.98426C11.4172 7.15955 11.1387 8.15691 10.5638 9.43087L10.1371 10.3691H9.28361C7.903 10.3691 7.14999 11.1542 7.14999 11.1542C6.37488 11.8943 5.8486 12.6899 5.8486 13.7391Z" fill="url(#paint0_linear_387_240671)"/>
<defs>
<linearGradient id="paint0_linear_387_240671" x1="9.60581" y1="0.153069" x2="9.47905" y2="12.1484" gradientUnits="userSpaceOnUse">
<stop stop-color="#6C4F0B"/>
<stop offset="0.771847" stop-color="#473204"/>
<stop offset="1" stop-color="#CE9A22"/>
</linearGradient>
</defs>
</svg>
