<svg preserveAspectRatio="none" width="100%" height="100%" overflow="visible" style="display: block;" viewBox="0 0 32 21" fill="none" xmlns="http://www.w3.org/2000/svg">
<path id="Hotels" fill-rule="evenodd" clip-rule="evenodd" d="M2 0V15H32V21H30V17H2V21H0V0H2ZM8.5 4C10.9853 4 13 6.01472 13 8.5C13 10.9853 10.9853 13 8.5 13C6.01472 13 4 10.9853 4 8.5C4 6.01472 6.01472 4 8.5 4ZM17.795 4C17.9353 4 18.0751 4.0107 18.2146 4.03191L18.4238 4.0716L28.8998 6.4886C30.65 6.89238 31.9075 8.40962 31.9951 10.1883L32 10.387V13H30V10.387C30 9.50956 29.4308 8.74221 28.6075 8.48046L28.4502 8.4374L17.9774 6.02113C17.9151 6.00698 17.8544 6 17.795 6C17.39 6 17.0553 6.30364 17.0062 6.69615L17 6.796V13H15V6.796C15 5.25196 16.2515 4 17.795 4ZM8.5 6C7.11928 6 6 7.11928 6 8.5C6 9.88072 7.11928 11 8.5 11C9.88072 11 11 9.88072 11 8.5C11 7.11928 9.88072 6 8.5 6Z" fill="var(--fill-0, #FF8D00)"/>
</svg>
