<svg preserveAspectRatio="none" width="100%" height="100%" overflow="visible" style="display: block;" viewBox="0 0 11 6" fill="none" xmlns="http://www.w3.org/2000/svg">
<g id="path">
<path fill-rule="evenodd" clip-rule="evenodd" d="M3.13839 0H0.783129L0 1.12081H1.1166L1.11691 6H3.13839C4.08169 6 4.84393 5.72279 5.4007 5.15057C5.95226 4.5837 6.22368 3.86173 6.22368 3C6.22368 2.13827 5.95226 1.41628 5.4007 0.849416C4.84393 0.277188 4.08169 0 3.13839 0ZM2.32584 4.91812V1.09798H3.08155C3.64254 1.09798 4.09246 1.26073 4.44609 1.57742C4.78865 1.88419 4.97413 2.34732 4.97413 3C4.97413 3.66443 4.78808 4.1324 4.44609 4.43866C4.09246 4.75535 3.64253 4.91812 3.08155 4.91812H2.32584Z" fill="var(--fill-0, white)"/>
<path d="M9.09805 0H6.80096V1.10603H7.91347V4.89399H6.71163V6H10.0195L10.4803 4.89399H9.09805V0Z" fill="var(--fill-0, white)"/>
</g>
</svg>
