<svg preserveAspectRatio="none" width="100%" height="100%" overflow="visible" style="display: block;" viewBox="0 0 29 29" fill="none" xmlns="http://www.w3.org/2000/svg">
<path id="pharmacies" d="M20.9998 12.9995C25.4178 12.9995 28.9998 16.5815 28.9998 20.9995C28.9998 25.4175 25.4178 28.9995 20.9998 28.9995C16.5818 28.9995 12.9998 25.4175 12.9998 20.9995C12.9998 16.5815 16.5818 12.9995 20.9998 12.9995ZM26.8028 2.1965C29.6678 5.0615 29.7308 9.6685 26.9898 12.6095L26.8028 12.8025L25.3888 11.3885C27.5368 9.2415 27.5368 5.7585 25.3888 3.6105C23.3008 1.5225 19.9508 1.4645 17.7928 3.4365L17.6108 3.6105L11.3188 9.9035L14.8028 13.3885L13.3888 14.8025L9.90378 11.3185L3.61078 17.6115C1.46278 19.7585 1.46278 23.2415 3.61078 25.3885C5.69878 27.4765 9.04878 27.5345 11.2068 25.5625L11.3888 25.3885L12.8028 26.8025C9.87478 29.7315 5.12578 29.7315 2.19678 26.8025C-0.669221 23.9395 -0.730222 19.3315 2.00978 16.3915L2.19678 16.1975L16.1968 2.1975C19.1258 -0.7325 23.8748 -0.7325 26.8028 2.1975V2.1965ZM26.9168 22.0005H15.0828C15.5598 24.8375 18.0268 26.9995 20.9998 26.9995C23.9728 26.9995 26.4398 24.8375 26.9168 21.9995V22.0005ZM7.02478 17.2925L8.43878 18.7065L6.43878 20.7065C5.88978 21.2565 5.85578 22.1255 6.33578 22.7145L6.43878 22.8285L5.02478 24.2425C3.70678 22.9245 3.65978 20.8175 4.88378 19.4425L5.02378 19.2925L7.02378 17.2925H7.02478ZM20.9998 14.9995C18.0268 14.9995 15.5588 17.1615 15.0828 19.9995H26.9168C26.4408 17.1615 23.9728 14.9995 20.9998 14.9995Z" fill="var(--fill-0, #DA0000)"/>
</svg>
