<svg preserveAspectRatio="none" width="100%" height="100%" overflow="visible" style="display: block;" viewBox="0 0 24 30" fill="none" xmlns="http://www.w3.org/2000/svg">
<path id="Eat" fill-rule="evenodd" clip-rule="evenodd" d="M0 0H2V8C2 9.18516 2.2115 9.76545 3.52157 11.1053L4.02463 11.6104L3.17326 26.0919C3.11509 27.0779 3.85878 27.9165 4.82541 27.9941L4.972 28H5.028C6.01547 28 6.80896 27.2083 6.82951 26.2384L6.82672 26.0917L5.97537 11.6104L6.48735 11.0962L6.83187 10.733C7.72747 9.75575 7.95694 9.19077 7.99409 8.30925L8 8V0H10V8C10 9.61422 9.63406 10.6636 8.1424 12.2579L8.024 12.381L8.82326 25.9741C8.94824 28.0921 7.3192 29.8881 5.2256 29.995L4.972 30C2.85063 30 1.15351 28.2682 1.17011 26.1719L1.17672 25.9743L1.975 12.381L1.8576 12.2579C0.433743 10.7361 0.0355932 9.71074 0.00233958 8.21672L0 8V0ZM18 0C21.5942 0 24 3.43685 24 8C24 10.1354 23.0438 12.1137 21.3529 13.3442L21.1377 13.4941L21.022 13.567L21.1859 16.3874L21.7998 25.948C21.9406 28.0753 20.3083 29.8871 18.1771 29.9945L17.9759 29.9995L17.773 29.993C15.7365 29.8699 14.1672 28.1603 14.2038 26.1348L14.2124 25.9379L14.5472 21.0027L14.7625 17.6546L14.9294 14.7897L14.986 13.572L14.8623 13.4941C13.1867 12.3776 12.1749 10.5545 12.0207 8.54166L12.005 8.26606L12 8C12 3.43685 14.4058 0 18 0ZM18 2C15.6942 2 14 4.4203 14 8C14 9.68229 14.8221 11.1942 16.2489 12.0001L16.4472 12.1056L17 12.382V13L16.998 13.1868L16.976 13.86L16.9061 15.2777L16.7932 17.2184L16.4795 22.0873L16.2076 26.076C16.142 27.0254 16.8247 27.85 17.7204 27.9805L17.8635 27.9953L18.006 28C19.0009 28 19.7975 27.1977 19.8081 26.2203L19.8041 26.0795L19.3719 19.4173L19.0549 14.2229L19.0013 13.0892L19 12.382L19.5528 12.1056C21.1014 11.3312 22 9.75876 22 8C22 4.4203 20.3058 2 18 2ZM6 0V8H4V0H6Z" fill="var(--fill-0, #1BA136)"/>
</svg>
