<svg preserveAspectRatio="none" width="100%" height="100%" overflow="visible" style="display: block;" viewBox="0 0 24 24" fill="none" xmlns="http://www.w3.org/2000/svg">
<path id="Union" d="M16.7578 10.2988C17.2136 11.5304 18.1844 12.5013 19.416 12.957L24 14.6533L19.416 16.3496C18.1843 16.8054 17.2136 17.7771 16.7578 19.0088L15.0615 23.5918L13.3652 19.0088C12.9095 17.7771 11.9378 16.8054 10.7061 16.3496L6.12305 14.6533L10.7061 12.957C11.9378 12.5013 12.9094 11.5305 13.3652 10.2988L15.0615 5.71484L16.7578 10.2988ZM7.08984 3.05566C7.39369 3.87679 8.04119 4.52426 8.8623 4.82812L11.918 5.95898L8.8623 7.08984C8.04115 7.3937 7.3937 8.04115 7.08984 8.8623L5.95898 11.918L4.82812 8.8623C4.52426 8.04119 3.87679 7.39369 3.05566 7.08984L0 5.95898L3.05566 4.82812C3.87682 4.52427 4.52427 3.87682 4.82812 3.05566L5.95898 0L7.08984 3.05566Z" fill="url(#paint0_radial_331_224737)"/>
<defs>
<radialGradient id="paint0_radial_331_224737" cx="0" cy="0" r="1" gradientUnits="userSpaceOnUse" gradientTransform="translate(-2.13264e-07 1.2806) rotate(47.1627) scale(25.1063 25.5402)">
<stop offset="0.271436" stop-color="#63D67A"/>
<stop offset="0.772494" stop-color="#1781DE"/>
<stop offset="1" stop-color="#0059D6"/>
</radialGradient>
</defs>
</svg>
