<svg preserveAspectRatio="none" width="100%" height="100%" overflow="visible" style="display: block;" viewBox="0 0 24 24" fill="none" xmlns="http://www.w3.org/2000/svg">
<g id="icon">
<g id="path">
<path d="M14.5 10C14.5 8.34325 13.1568 7 11.5 7C9.84329 7 8.50004 8.34325 8.50004 10C8.50004 11.6567 9.84329 13 11.5 13C13.1568 13 14.5 11.6567 14.5 10Z" fill="#898989"/>
<path fill-rule="evenodd" clip-rule="evenodd" d="M21.5 12C21.5 17.5228 17.0228 22 11.5 22C5.97715 22 1.5 17.5228 1.5 12C1.5 6.47715 5.97715 2 11.5 2C17.0228 2 21.5 6.47715 21.5 12ZM6.55637 18.2901C6.96808 15.8479 9.03319 14 11.5074 14C13.9782 14 16.0409 15.8426 16.4573 18.2794C18.3107 16.8142 19.5 14.546 19.5 12C19.5 7.58172 15.9183 4 11.5 4C7.08172 4 3.5 7.58172 3.5 12C3.5 14.5522 4.69517 16.8253 6.55637 18.2901Z" fill="#898989"/>
</g>
</g>
</svg>
