<svg preserveAspectRatio="none" width="100%" height="100%" overflow="visible" style="display: block;" viewBox="0 0 24 24" fill="none" xmlns="http://www.w3.org/2000/svg">
<g id="icon">
<path id="path" fill-rule="evenodd" clip-rule="evenodd" d="M13.6915 9.17434L13.6154 9.67428C13.4969 10.1924 13.3446 10.865 13.3023 11.1559C13.3023 11.2286 13.3023 11.3195 13.3023 11.4286V11.565L15.3077 13.8192H17L13.6915 9.17434ZM9.38462 17.4551L6.84615 20.9092L8.53846 22L11.4662 17.8187L9.38462 14.7282V17.4551ZM14.4615 16.428L12.4646 12.5739C12.4646 12.2194 12.5154 11.5195 12.5746 11.1286C12.6338 10.7378 13.0231 9.02891 13.1669 8.46534C13.2508 8.08347 13.1995 7.68175 13.0231 7.33821C12.4792 6.67888 11.5735 6.53332 10.8738 6.9928L7.87846 9.33796L6 13.8192H7.69231L9.38462 10.5923L9.87538 10.356V10.4106C9.87538 10.5105 9.87538 10.6014 9.87538 10.656C9.75692 11.4559 9.73154 12.7648 9.72308 12.9102V13.3284L12.16 17.4551L13.3277 22H15.3077L14.4615 16.428ZM12.2869 6.04746C12.425 6.08627 12.5673 6.10462 12.71 6.102C13.5327 6.13866 14.2335 5.46629 14.2923 4.58401C14.4065 3.88557 14.2672 3.16667 13.9031 2.57517C13.5945 2.18604 13.1344 1.97419 12.6592 2.00252C12.2087 2.01465 11.7855 2.237 11.5 2.61153C11.1392 3.17425 10.9882 3.86197 11.0769 4.53856C11.0775 5.29374 11.5918 5.93509 12.2869 6.04746Z" fill="var(--fill-0, #898989)"/>
</g>
</svg>
